<?xml version="1.0" standalone="no"?>
<!DOCTYPE svg PUBLIC "-//W3C//DTD SVG 1.1//EN" "http://www.w3.org/Graphics/SVG/1.1/DTD/svg11.dtd" >
<svg xmlns="http://www.w3.org/2000/svg">
<metadata>Generated by IcoMoon</metadata>
<defs>
<font id="wapicon" horiz-adv-x="512">
<font-face units-per-em="512" ascent="480" descent="-32" />
<missing-glyph horiz-adv-x="512" />
<glyph unicode="&#x20;" d="" horiz-adv-x="256" />
<glyph unicode="&#xe000;" d="M499.2 193.139l-243.2 188.778-243.2-188.779v76.968l243.2 188.777 243.2-188.779zM438.4 200v-182.4h-121.6v121.6h-121.6v-121.6h-121.6v182.4l182.4 136.8z" />
<glyph unicode="&#xe003;" d="M12.8-12.8h243.2v486.4h-243.2v-486.4zM164.8 412.8h60.8v-60.8h-60.8v60.8zM164.8 291.2h60.8v-60.8h-60.8v60.8zM164.8 169.6h60.8v-60.8h-60.8v60.8zM43.2 412.8h60.8v-60.8h-60.8v60.8zM43.2 291.2h60.8v-60.8h-60.8v60.8zM43.2 169.6h60.8v-60.8h-60.8v60.8zM286.4 321.6h212.8v-30.4h-212.8zM286.4-12.8h60.8v121.6h91.2v-121.6h60.8v273.6h-212.8z" />
<glyph unicode="&#xe005;" d="M423.2 473.6c41.973 0 76-34.026 76-76 0-17.11-5.657-32.898-15.2-45.6l-30.4-30.4-106.4 106.4 30.4 30.4c12.702 9.543 28.49 15.2 45.6 15.2zM43.2 124l-30.4-136.8 136.8 30.4 281.2 281.2-106.4 106.4-281.2-281.2zM352.7 300.9l-212.8-212.8-26.199 26.199 212.8 212.8 26.199-26.199z" />
<glyph unicode="&#xe00b;" d="M499.2 200v182.4h-91.2v30.4c0 16.72-13.68 30.4-30.4 30.4h-334.4c-16.72 0-30.4-13.68-30.4-30.4v-91.2c0-16.72 13.68-30.4 30.4-30.4h334.4c16.72 0 30.4 13.68 30.4 30.4v30.4h60.8v-121.6h-273.6v-60.8h-15.2c-8.395 0-15.2-6.805-15.2-15.2v-152c0-8.395 6.805-15.2 15.2-15.2h60.8c8.395 0 15.2 6.805 15.2 15.2v152c0 8.395-6.805 15.2-15.2 15.2h-15.2v30.4h273.6zM377.6 382.4h-334.4v30.4h334.4v-30.4z" />
<glyph unicode="&#xe00d;" d="M12.8 412.8v-395.2h486.4v395.2h-486.4zM468.8 48h-425.6v334.4h425.6v-334.4zM347.2 306.4c0 25.184 20.416 45.6 45.6 45.6s45.6-20.416 45.6-45.6c0-25.184-20.416-45.6-45.6-45.6s-45.6 20.416-45.6 45.6zM438.4 78.4h-364.8l91.2 243.2 121.6-152 60.8 45.6z" />
<glyph unicode="&#xe00e;" d="M73.6 352v-304h425.6v304h-425.6zM468.8 98.666l-60.8 101.334-68.906-57.422-52.694 87.822-182.4-152v243.2h364.8v-222.934zM134.4 245.6c0 25.184 20.416 45.6 45.6 45.6s45.6-20.416 45.6-45.6c0-25.184-20.416-45.6-45.6-45.6s-45.6 20.416-45.6 45.6zM438.4 412.8h-425.6v-304h30.4v273.6h395.2z" />
<glyph unicode="&#xe00f;" d="M157.2 200c0-54.567 44.233-98.8 98.8-98.8s98.8 44.233 98.8 98.8c0 54.567-44.233 98.8-98.8 98.8s-98.8-44.235-98.8-98.8zM468.8 367.2h-106.4c-7.6 30.4-15.2 60.8-45.6 60.8h-121.6c-30.4 0-38-30.4-45.6-60.8h-106.4c-16.72 0-30.4-13.68-30.4-30.4v-273.6c0-16.72 13.68-30.4 30.4-30.4h425.6c16.72 0 30.4 13.68 30.4 30.4v273.6c0 16.72-13.68 30.4-30.4 30.4zM256 65.1c-74.504 0-134.9 60.395-134.9 134.9s60.396 134.9 134.9 134.9c74.505 0 134.9-60.397 134.9-134.9 0-74.505-60.394-134.9-134.9-134.9zM468.8 276h-60.8v30.4h60.8v-30.4z" />
<glyph unicode="&#xe010;" d="M164.8 382.4l334.4 91.2v-349.6c0-41.974-47.637-76-106.4-76s-106.4 34.026-106.4 76c0 41.974 47.637 76 106.4 76 16.32 0 31.779-2.627 45.6-7.318v156.555l-212.8-58.036v-228c0-41.974-47.637-76-106.4-76s-106.4 34.026-106.4 76c0 41.974 47.637 76 106.4 76 16.32 0 31.779-2.627 45.6-7.318v250.518z" />
<glyph unicode="&#xe011;" d="M104 198.914v-210.629c4.966-0.711 10.038-1.086 15.2-1.086h15.2v212.801h-15.2c-5.162 0-10.234-0.375-15.2-1.086zM377.6 200v-212.8h15.2c5.163 0 10.235 0.375 15.2 1.086v210.628c-4.966 0.711-10.038 1.086-15.2 1.086h-15.2zM499.2 230.4c0 134.316-108.885 243.2-243.2 243.2s-243.2-108.884-243.2-243.2c0-29.174 5.143-57.145 14.562-83.065-9.249-15.771-14.562-34.13-14.562-53.735 0-42.443 24.855-79.077 60.8-96.155v192.31c-9.56-4.542-18.326-10.478-26.058-17.529-2.846 13.88-4.343 28.252-4.343 42.974 0 117.527 95.273 212.8 212.8 212.8s212.8-95.273 212.8-212.8c0-14.722-1.495-29.094-4.342-42.974-7.733 7.051-16.497 12.988-26.058 17.529v-192.31c35.946 17.078 60.8 53.712 60.8 96.155 0 19.605-5.313 37.964-14.562 53.735 9.418 25.92 14.562 53.892 14.562 83.065z" />
<glyph unicode="&#xe012;" d="M478.865 397.548c-68.225 9.809-143.607 15.252-222.863 15.252-79.258 0-154.639-5.442-222.867-15.252-13.077-51.17-20.334-107.706-20.334-167.148s7.257-115.979 20.334-167.148c68.228-9.81 143.609-15.252 222.867-15.252 79.255 0 154.637 5.442 222.863 15.252 13.077 51.169 20.336 107.706 20.336 167.148s-7.258 115.979-20.336 167.148zM195.201 139.2v182.4l152-91.2-152-91.2z" />
<glyph unicode="&#xe014;" d="M195.2 336.8c0 41.974 34.026 76 76 76s76-34.026 76-76c0-41.974-34.026-76-76-76s-76 34.026-76 76zM12.8 336.8c0 41.974 34.026 76 76 76s76-34.026 76-76c0-41.974-34.026-76-76-76s-76 34.026-76 76zM377.6 184.8v45.6c0 16.72-13.68 30.4-30.4 30.4h-304c-16.72 0-30.4-13.68-30.4-30.4v-152c0-16.72 13.68-30.4 30.4-30.4h304c16.72 0 30.4 13.68 30.4 30.4v45.6l121.6-76v212.8l-121.6-76zM316.8 108.8h-243.2v91.2h243.2v-91.2z" />
<glyph unicode="&#xe015;" d="M423.2 382.4h-243.2c-41.8 0-76-34.2-76-76v-243.2c0-41.8 34.2-76 76-76h243.2c41.8 0 76 34.2 76 76v243.2c0 41.8-34.2 76-76 76zM210.4 48c-25.184 0-45.6 20.416-45.6 45.6s20.416 45.6 45.6 45.6 45.6-20.416 45.6-45.6-20.416-45.6-45.6-45.6zM210.4 230.4c-25.184 0-45.6 20.416-45.6 45.6s20.416 45.6 45.6 45.6 45.6-20.416 45.6-45.6-20.416-45.6-45.6-45.6zM301.6 139.2c-25.185 0-45.6 20.416-45.6 45.6s20.416 45.6 45.6 45.6 45.6-20.416 45.6-45.6-20.416-45.6-45.6-45.6zM392.8 48c-25.185 0-45.6 20.416-45.6 45.6s20.416 45.6 45.6 45.6 45.6-20.416 45.6-45.6-20.416-45.6-45.6-45.6zM392.8 230.4c-25.185 0-45.6 20.416-45.6 45.6s20.416 45.6 45.6 45.6 45.6-20.416 45.6-45.6-20.416-45.6-45.6-45.6zM406.461 412.8c-7.091 34.582-37.863 60.8-74.461 60.8h-243.2c-41.8 0-76-34.2-76-76v-243.2c0-36.597 26.218-67.37 60.8-74.461v302.461c0 16.72 13.68 30.4 30.4 30.4h302.461z" />
<glyph unicode="&#xe016;" d="M471.046 388.668c-44.603 51.988-110.774 84.932-184.647 84.932-134.315 0-243.2-108.885-243.2-243.2s108.884-243.2 243.2-243.2c73.872 0 140.043 32.944 184.646 84.932l-154.246 158.268 154.246 158.268zM347.2 416.314c18.73 0 33.914-15.183 33.914-33.914s-15.184-33.914-33.914-33.914-33.914 15.184-33.914 33.914c0 18.73 15.184 33.914 33.914 33.914z" />
<glyph unicode="&#xe017;" d="M401.146 308.229c-91.944 68.332-123.627 123.033-145.144 165.37v0c-0.002 0-0.002 0.001-0.002 0.001v-0.001c-21.516-42.337-53.2-97.038-145.144-165.37-156.767-116.511-9.204-279.143 120.535-189.632-8.453-55.542-37.302-96.031-66.599-113.469v-17.928h182.415v17.926c-29.299 17.437-58.144 57.928-66.601 113.47 129.74-89.512 277.305 73.121 120.539 189.633z" />
<glyph unicode="&#xe018;" d="M386.545 287.034c-28.040 0-53.241-11.683-71.18-30.73-7.598-8.067-20.787-17.628-35.055-26.035 6.702 25.588 27.871 57.808 42.574 71.942 18.829 18.13 30.392 43.619 30.392 71.962 0.003 54.575-43.451 98.846-97.274 99.427-53.827-0.581-97.278-44.853-97.278-99.426 0-28.344 11.564-53.832 30.393-71.962 14.703-14.134 35.872-46.355 42.573-71.941-14.27 8.407-27.458 17.968-35.055 26.035-17.94 19.046-43.139 30.729-71.178 30.729-54.334 0-98.363-44.49-98.363-99.431 0-54.928 44.028-99.435 98.363-99.435 28.045 0 53.239 12.044 71.178 31.089 7.982 8.489 22.061 19.065 37.189 27.85-1.426-70.154-34.928-121.68-69.026-141.981v-17.928h182.406v17.926c-34.101 20.3-67.602 71.827-69.027 141.981 15.13-8.784 29.207-19.365 37.188-27.85 17.939-19.044 43.134-31.089 71.18-31.089 54.334 0 98.362 44.507 98.362 99.435-0.001 54.941-44.029 99.431-98.363 99.431z" />
<glyph unicode="&#xe019;" d="M256 473.6l-152-243.2 152-243.2 152 243.2z" />
<glyph unicode="&#xe01b;" d="M499.2 269.704c0 95.44-27.926 172.87-62.454 173.482 0.139 0.003 0.274 0.014 0.414 0.014h-39.397c0 0-92.53-69.509-225.734-96.783-4.066-21.514-6.664-47.155-6.664-76.714s2.596-55.199 6.664-76.712c133.203-27.274 225.734-96.784 225.734-96.784h39.397c-0.139 0-0.274 0.012-0.414 0.015 34.531 0.612 62.454 78.041 62.454 173.482zM423.591 122.455c-4.457 0-9.277 4.627-11.755 7.385-5.999 6.68-11.776 17.081-16.714 30.081-11.046 29.085-17.132 68.072-17.132 109.784 0 41.71 6.084 80.698 17.132 109.783 4.937 13 10.717 23.401 16.714 30.081 2.476 2.76 7.298 7.387 11.755 7.387 4.455 0 9.279-4.629 11.753-7.387 6.001-6.68 11.778-17.080 16.714-30.081 11.048-29.084 17.132-68.073 17.132-109.783 0-41.707-6.084-80.697-17.132-109.784-4.935-13-10.717-23.401-16.714-30.081-2.474-2.758-7.296-7.385-11.753-7.385zM132.411 269.704c0 24.676 1.81 48.654 5.25 70.82-22.501-3.113-42.248-4.904-66.662-4.904-31.852 0-31.852 0-31.852 0l-26.346-44.976v-41.881l26.343-44.976c0 0 0 0 31.854 0 24.414 0 44.16-1.793 66.661-4.904-3.437 22.166-5.248 46.145-5.248 70.82zM187.671 168.568l-60.799 11.642 38.875-152.733c2.012-7.901 9.853-11.893 17.426-8.861l56.314 22.539c7.573 3.029 10.606 11.383 6.743 18.565l-58.559 108.847zM423.591 212.953c-1.719 0-3.576 1.783-4.531 2.846-2.313 2.575-4.539 6.584-6.442 11.594-4.257 11.21-6.603 26.236-6.603 42.312s2.346 31.102 6.603 42.312c1.903 5.010 4.13 9.019 6.442 11.594 0.954 1.064 2.812 2.847 4.531 2.847 1.717 0 3.577-1.784 4.531-2.847 2.313-2.574 4.539-6.582 6.441-11.594 4.258-11.209 6.603-26.236 6.603-42.312 0-16.075-2.346-31.102-6.603-42.312-1.902-5.011-4.13-9.020-6.441-11.594-0.954-1.063-2.812-2.846-4.531-2.846z" />
<glyph unicode="&#xe01c;" d="M256 205.832c40.639 0 77.49-16.531 104.18-43.221l-34.727-34.727c-17.793 17.794-42.361 28.815-69.453 28.815s-51.659-11.021-69.453-28.815l-34.727 34.727c26.69 26.69 63.541 43.221 104.18 43.221zM82.285 232.145c46.401 46.401 108.094 71.956 173.714 71.956s127.314-25.554 173.716-71.956l-34.743-34.742c-37.121 37.121-86.476 57.564-138.972 57.564s-101.851-20.442-138.971-57.565l-34.743 34.744zM389.884 375.33c40.959-17.324 77.737-42.12 109.316-73.699v0l-34.742-34.742c-55.681 55.681-129.714 86.346-208.458 86.346s-152.775-30.665-208.458-86.346l-34.743 34.744c31.579 31.578 68.358 56.375 109.317 73.698 42.418 17.94 87.463 27.038 133.884 27.038s91.465-9.097 133.884-27.038zM231.433 82.998c0 13.568 10.999 24.567 24.567 24.567s24.567-10.999 24.567-24.567c0-13.568-10.999-24.567-24.567-24.567s-24.567 10.999-24.567 24.567z" />
<glyph unicode="&#xe01d;" d="M499.2 230.4c0 134.316-108.885 243.2-243.2 243.2s-243.2-108.884-243.2-243.2c0-104.525 65.947-193.641 158.501-228.033l-6.501-15.168h182.4l-6.501 15.168c92.553 34.392 158.501 123.507 158.501 228.033zM244.025 172.058c-10.834 4.649-18.425 15.407-18.425 27.942 0 16.789 13.611 30.4 30.4 30.4s30.4-13.611 30.4-30.4c0-12.536-7.589-23.296-18.423-27.946l-11.976 27.946-11.975-27.942zM268.478 170.886c27.594 5.756 48.322 30.211 48.322 59.514 0 33.58-27.221 60.8-60.8 60.8-33.578 0-60.8-27.221-60.8-60.8 0-29.304 20.739-53.733 48.336-59.484l-35.447-82.708c-43.334 18.596-73.69 61.647-73.69 111.791 0 67.158 54.442 127.3 121.6 127.3s121.6-60.142 121.6-127.3c0-50.144-30.356-93.195-73.69-111.791l-35.433 82.678zM339.813 4.438l-35.114 81.931c60.062 20.3 103.301 77.115 103.301 144.031 0 83.947-68.053 152-152 152s-152-68.053-152-152c0-66.916 43.239-123.73 103.301-144.030l-35.114-81.931c-75.807 32.532-128.909 107.841-128.909 195.561 0 117.483 95.239 218.421 212.721 218.421s212.721-100.938 212.721-218.421c0-87.72-53.101-163.029-128.909-195.562z" />
<glyph unicode="&#xe01f;" d="M438.4 412.8v-395.2h-319.2c-25.186 0-45.6 20.416-45.6 45.6 0 25.183 20.415 45.6 45.6 45.6h288.8v364.8h-304c-33.439 0-60.8-27.36-60.8-60.8v-364.8c0-33.44 27.361-60.8 60.8-60.8h364.8v425.6h-30.4zM134.4 78.4h273.6v-30.4h-273.6z" />
<glyph unicode="&#xe020;" d="M286.511 336.197l115.288 38.68 96.702-288.223-115.288-38.68zM12.8 48h121.6v334.4h-121.6v-334.4zM43.2 321.6h60.8v-30.4h-60.8v30.4zM164.8 48h121.6v334.4h-121.6v-334.4zM195.2 321.6h60.8v-30.4h-60.8v30.4z" />
<glyph unicode="&#xe021;" d="M256 473.6l-243.2-152h486.4l-243.2 152zM392.8 291.2l15.2-30.4v-182.4h60.8v182.4l15.2 30.4h-91.2zM271.2 291.2l15.2-30.4v-182.4h60.8v182.4l15.2 30.4h-91.2zM149.6 291.2l15.2-30.4v-182.4h60.8v182.4l15.2 30.4h-91.2zM28 291.2l15.2-30.4v-182.4h60.8v182.4l15.2 30.4h-91.2zM28 48l-15.2-60.8h486.4l-15.2 60.8h-456zM286.4 382.4c0-16.789-13.611-30.4-30.4-30.4s-30.4 13.611-30.4 30.4 13.611 30.4 30.4 30.4c16.79 0 30.4-13.611 30.4-30.4z" />
<glyph unicode="&#xe026;" d="M441.93 378.87l-67.861 67.86c-14.778 14.778-43.97 26.87-64.87 26.87h-228c-20.9 0-38-17.1-38-38v-410.4c0-20.9 17.1-38 38-38h349.6c20.9 0 38 17.1 38 38v288.8c0 20.9-12.091 50.093-26.87 64.87zM420.435 357.374c1.486-1.487 2.969-3.313 4.408-5.374h-77.642v77.642c2.062-1.44 3.887-2.922 5.374-4.408l67.861-67.859zM438.4 25.2c0-4.119-3.481-7.6-7.6-7.6h-349.6c-4.119 0-7.6 3.481-7.6 7.6v410.4c0 4.119 3.481 7.6 7.6 7.6h228c2.295 0 4.87-0.289 7.6-0.81v-120.79h120.791c0.519-2.73 0.81-5.304 0.81-7.6v-288.8z" />
<glyph unicode="&#xe027;" d="M408 352h-91.2v30.4l-91.2 91.2h-212.8v-364.8h182.4v-121.6h304v273.6l-91.2 91.2zM408 309.008l48.208-48.208h-48.208v48.208zM225.6 430.608l48.208-48.208h-48.208v48.208zM43.2 443.2h152v-91.2h91.2v-212.8h-243.2v304zM468.8 17.6h-243.2v91.2h91.2v212.8h60.8v-91.2h91.2v-212.8z" />
<glyph unicode="&#xe02b;" d="M408 321.6v76c0 8.36-6.84 15.2-15.2 15.2h-106.4v30.4c0 16.72-13.68 30.4-30.4 30.4h-60.8c-16.722 0-30.4-13.68-30.4-30.4v-30.4h-106.4c-8.361 0-15.2-6.84-15.2-15.2v-304c0-8.36 6.839-15.2 15.2-15.2h136.8v-91.2h212.8l91.2 91.2v243.2h-91.2zM195.2 443.146c0.016 0.018 0.034 0.037 0.054 0.054h60.69c0.020-0.017 0.039-0.036 0.056-0.054v-30.346h-60.8v30.346zM104 352v30.4h243.2v-30.4h-243.2zM408 30.192v48.208h48.208l-48.208-48.208zM468.8 108.8h-91.2v-91.2h-152v273.6h243.2v-182.4z" />
<glyph unicode="&#xe02d;" d="M499.2 321.6l-243.2 121.6-243.2-121.6 243.2-121.6 243.2 121.6zM256 402.839l162.477-81.239-162.477-81.239-162.477 81.239 162.477 81.239zM450.486 254.757l48.714-24.357-243.2-121.6-243.2 121.6 48.714 24.357 194.486-97.243zM450.486 163.557l48.714-24.357-243.2-121.6-243.2 121.6 48.714 24.357 194.486-97.243z" />
<glyph unicode="&#xe02e;" d="M12.8 321.6h486.4l-30.4-304h-425.6l-30.4 304zM453.6 382.4l15.2-30.4h-425.6l30.4 60.8h167.2l15.2-30.4h197.6z" />
<glyph unicode="&#xe02f;" d="M408 17.6l91.2 243.2h-395.2l-91.2-243.2zM73.6 291.2l-60.8-273.6v395.2h136.8l60.8-60.8h197.6v-60.8z" />
<glyph unicode="&#xe030;" d="M453.51 473.6h-137.067c-25.13 0-60.228-14.538-77.997-32.307l-212.32-212.32c-17.769-17.769-17.769-46.847 0-64.615l163.833-163.83c17.769-17.77 46.845-17.77 64.614 0l212.321 212.32c17.769 17.77 32.307 52.868 32.307 77.997v137.067c0 25.13-20.561 45.69-45.69 45.69zM392.8 321.6c-25.185 0-45.6 20.415-45.6 45.6s20.416 45.6 45.6 45.6 45.6-20.415 45.6-45.6-20.416-45.6-45.6-45.6z" />
<glyph unicode="&#xe031;" d="M456.13 430.37h-100.872c-23.777 0-56.986-13.756-73.8-30.569l-169.427-169.427c-16.812-16.812-16.812-44.325 0-61.137l126.196-126.195c16.812-16.813 44.325-16.813 61.137 0l169.426 169.426c16.813 16.813 30.57 50.023 30.57 73.8v100.872c0 23.777-19.454 43.231-43.231 43.231zM398.488 286.266c-23.877 0-43.231 19.354-43.231 43.231s19.354 43.231 43.231 43.231c23.877 0 43.231-19.354 43.231-43.231s-19.354-43.231-43.231-43.231zM48.42 189.616l154.18-154.18c-16.331-8.628-37.135-6.096-50.835 7.605l-126.196 126.195c-16.812 16.813-16.812 44.325 0 61.137l169.427 169.427c16.813 16.813 50.023 30.568 73.8 30.568l-220.376-220.374c-5.604-5.605-5.604-14.774 0-20.378z" horiz-adv-x="518" />
<glyph unicode="&#xe032;" d="M33.066-12.8h445.867v486.4h-445.867v-486.4zM73.601 27.733v364.8h364.8v-364.8h-364.8zM114.134 68.267v40.533h40.533v-40.533h-40.533zM114.134 149.333v40.533h40.533v-40.533h-40.533zM114.134 230.4v40.533h40.533v-40.533h-40.533zM114.134 311.468v40.533h40.533v-40.533h-40.533zM195.201 68.267h202.667v40.533h-202.667v-40.533zM195.201 149.333v40.533h202.667v-40.533h-202.667zM195.201 230.4v40.533h202.667v-40.533h-202.667zM195.201 311.468v40.533h202.667v-40.533h-202.667z" />
<glyph unicode="&#xe033;" d="M12.8 412.8h60.8v-304h-60.8zM104 412.8h30.4v-304h-30.4zM164.8 412.8h30.4v-304h-30.4zM256 412.8h30.4v-304h-30.4zM377.6 412.8h30.4v-304h-30.4zM468.8 412.8h30.4v-304h-30.4zM316.8 412.8h15.2v-304h-15.2zM225.6 412.8h15.2v-304h-15.2zM423.2 412.8h15.2v-304h-15.2zM12.8 78.4h30.4v-30.4h-30.4zM104 78.4h30.4v-30.4h-30.4zM164.8 78.4h30.4v-30.4h-30.4zM316.8 78.4h30.4v-30.4h-30.4zM468.8 78.4h30.4v-30.4h-30.4zM377.6 78.4h60.8v-30.4h-60.8zM225.6 78.4h60.8v-30.4h-60.8z" />
<glyph unicode="&#xe034;" d="M164.8 443.2h-121.6v-121.6h121.6v121.6zM195.2 473.6v0-182.4h-182.4v182.4h182.4zM73.6 412.8h60.8v-60.8h-60.8zM468.8 443.2h-121.6v-121.6h121.6v121.6zM499.2 473.6v0-182.4h-182.4v182.4h182.4zM377.6 412.8h60.8v-60.8h-60.8zM164.8 139.2h-121.6v-121.6h121.6v121.6zM195.2 169.6v0-182.4h-182.4v182.4h182.4zM73.6 108.8h60.8v-60.8h-60.8zM225.6 473.6h30.4v-30.4h-30.4zM256 443.2h30.4v-30.4h-30.4zM225.6 412.8h30.4v-30.4h-30.4zM256 382.4h30.4v-30.4h-30.4zM225.6 352h30.4v-30.4h-30.4zM256 321.6h30.4v-30.4h-30.4zM225.6 291.2h30.4v-30.4h-30.4zM225.6 230.4h30.4v-30.4h-30.4zM256 200h30.4v-30.4h-30.4zM225.6 169.6h30.4v-30.4h-30.4zM256 139.2h30.4v-30.4h-30.4zM225.6 108.8h30.4v-30.4h-30.4zM256 78.4h30.4v-30.4h-30.4zM225.6 48h30.4v-30.4h-30.4zM256 17.6h30.4v-30.4h-30.4zM468.8 230.4h30.4v-30.4h-30.4zM43.2 230.4h30.4v-30.4h-30.4zM73.6 260.8h30.4v-30.4h-30.4zM12.8 260.8h30.4v-30.4h-30.4zM134.4 260.8h30.4v-30.4h-30.4zM164.8 230.4h30.4v-30.4h-30.4zM195.2 260.8h30.4v-30.4h-30.4zM286.4 230.4h30.4v-30.4h-30.4zM316.8 260.8h30.4v-30.4h-30.4zM347.2 230.4h30.4v-30.4h-30.4zM377.6 260.8h30.4v-30.4h-30.4zM408 230.4h30.4v-30.4h-30.4zM438.4 260.8h30.4v-30.4h-30.4zM468.8 169.6h30.4v-30.4h-30.4zM286.4 169.6h30.4v-30.4h-30.4zM316.8 200h30.4v-30.4h-30.4zM347.2 169.6h30.4v-30.4h-30.4zM408 169.6h30.4v-30.4h-30.4zM438.4 200h30.4v-30.4h-30.4zM468.8 108.8h30.4v-30.4h-30.4zM286.4 108.8h30.4v-30.4h-30.4zM316.8 139.2h30.4v-30.4h-30.4zM377.6 139.2h30.4v-30.4h-30.4zM408 108.8h30.4v-30.4h-30.4zM438.4 139.2h30.4v-30.4h-30.4zM468.8 48h30.4v-30.4h-30.4zM316.8 78.4h30.4v-30.4h-30.4zM347.2 48h30.4v-30.4h-30.4zM377.6 78.4h30.4v-30.4h-30.4zM408 48h30.4v-30.4h-30.4zM316.8 17.6h30.4v-30.4h-30.4zM377.6 17.6h30.4v-30.4h-30.4zM438.4 17.6h30.4v-30.4h-30.4z" />
<glyph unicode="&#xe035;" d="M88.8 32.8c0 25.184 20.416 45.6 45.6 45.6s45.6-20.416 45.6-45.6c0-25.184-20.416-45.6-45.6-45.6s-45.6 20.416-45.6 45.6zM392.8 32.8c0 25.184 20.416 45.6 45.6 45.6s45.6-20.416 45.6-45.6c0-25.184-20.416-45.6-45.6-45.6s-45.6 20.416-45.6 45.6zM484 230.4v182.4h-395.2c0 33.579-27.221 60.8-60.8 60.8v-30.4c16.763 0 30.4-13.637 30.4-30.4l22.835-195.726c-13.915-11.142-22.835-28.262-22.835-47.474 0-33.579 27.221-60.8 60.8-60.8h364.8v30.4h-364.8c-16.79 0-30.4 13.611-30.4 30.4 0 0.105 0.007 0.207 0.007 0.311l395.193 60.489z" />
<glyph unicode="&#xe038;" d="M256 470.4c-132.548 0-240-107.452-240-240 0-132.549 107.452-240 240-240s240 107.451 240 240c0 132.548-107.451 240-240 240zM256 38.4c-106.039 0-192 85.961-192 192s85.961 192 192 192c106.039 0 192-85.961 192-192s-85.961-192-192-192zM272 246.4v64h64v32h-64v32h-32v-32h-64v-128h64v-64h-64v-32h64v-32h32v32h64.001l-0.001 128h-64zM240 246.4h-32v64h32v-64zM304.001 150.4h-32.001v64h32.001v-64z" />
<glyph unicode="&#xe039;" d="M453.6 412.8h-395.2c-25.080 0-45.6-20.52-45.6-45.6v-273.6c0-25.080 20.52-45.6 45.6-45.6h395.2c25.080 0 45.6 20.52 45.6 45.6v273.6c0 25.080-20.52 45.6-45.6 45.6zM58.4 382.4h395.2c8.24 0 15.2-6.96 15.2-15.2v-45.6h-425.6v45.6c0 8.239 6.96 15.2 15.2 15.2zM453.6 78.4h-395.2c-8.239 0-15.2 6.961-15.2 15.2v136.8h425.6v-136.8c0-8.24-6.961-15.2-15.2-15.2zM73.6 169.6h30.4v-60.8h-30.4zM134.4 169.6h30.4v-60.8h-30.4zM195.2 169.6h30.4v-60.8h-30.4z" />
<glyph unicode="&#xe03a;" d="M208 470.4h-160c-17.6 0-32-14.4-32-32v-160c0-17.6 14.398-32 32-32h160c17.6 0 32 14.4 32 32v160c0 17.6-14.4 32-32 32zM208 342.4h-160v32h160v-32zM464 470.4h-160c-17.601 0-32-14.4-32-32v-416c0-17.6 14.399-32 32-32h160c17.6 0 32 14.4 32 32v416c0 17.6-14.4 32-32 32zM464 182.4h-160v32h160v-32zM464 278.4h-160v32h160v-32zM208 214.4h-160c-17.6 0-32-14.4-32-32v-160c0-17.6 14.398-32 32-32h160c17.6 0 32 14.4 32 32v160c0 17.6-14.4 32-32 32zM208 86.4h-64v-64h-32v64h-64v32h64v64h32v-64h64v-32z" />
<glyph unicode="&#xe03b;" d="M256 473.6c-134.315 0-243.2-108.885-243.2-243.2s108.885-243.2 243.2-243.2 243.2 108.885 243.2 243.2-108.885 243.2-243.2 243.2zM164.8 230.4c0 50.369 40.831 91.2 91.2 91.2s91.2-40.831 91.2-91.2-40.831-91.2-91.2-91.2-91.2 40.831-91.2 91.2zM452.64 148.949v0l-84.274 34.908c5.946 14.337 9.234 30.056 9.234 46.544s-3.288 32.206-9.234 46.543l84.274 34.908c10.406-25.090 16.159-52.597 16.159-81.451s-5.754-56.361-16.159-81.451v0zM337.452 427.041v0 0l-34.908-84.275c-14.337 5.946-30.056 9.234-46.544 9.234s-32.206-3.288-46.543-9.234l-34.907 84.276c25.090 10.404 52.597 16.159 81.451 16.159 28.855 0 56.361-5.754 81.452-16.16zM59.359 311.851l84.275-34.908c-5.946-14.337-9.235-30.056-9.235-46.543s3.288-32.206 9.234-46.544l-84.275-34.908c-10.406 25.091-16.16 52.596-16.16 81.451s5.754 56.36 16.16 81.451zM174.549 33.76l34.908 84.274c14.338-5.946 30.056-9.234 46.543-9.234s32.206 3.288 46.543 9.234l34.908-84.274c-25.091-10.404-52.596-16.159-81.451-16.159-28.853 0-56.361 5.754-81.451 16.159z" />
<glyph unicode="&#xe03c;" d="M362.4 184.8c-30.4-30.4-30.4-60.8-60.8-60.8s-60.8 30.4-91.2 60.8c-30.4 30.4-60.8 60.8-60.8 91.2s30.4 30.4 60.8 60.8c30.4 30.4-60.8 121.6-91.2 121.6s-91.2-91.2-91.2-91.2c0-60.8 62.463-184.063 121.6-243.2s182.4-121.6 243.2-121.6c0 0 91.2 60.8 91.2 91.2s-91.2 121.6-121.6 91.2z" />
<glyph unicode="&#xe03d;" d="M496.055 200.003c3.802-26.354 6.277-62.411-5.541-76.212-19.543-22.821-143.313-22.821-143.313 22.82 0 22.989 20.356 38.063 0.813 60.885-19.224 22.45-53.688 22.814-92.014 22.82-38.326-0.005-72.79-0.37-92.014-22.82-19.542-22.822 0.814-37.895 0.814-60.885 0-45.641-123.77-45.641-143.314-22.821-11.817 13.8-9.342 49.858-5.54 76.212 2.926 17.593 10.319 36.573 33.986 60.797 0 0.001 0.001 0.001 0.001 0.002 35.5 33.127 89.227 60.2 204.167 60.785v0.014c0.638 0 1.266-0.005 1.9-0.007 0.635 0.002 1.262 0.007 1.9 0.007v-0.014c114.94-0.584 168.667-27.658 204.168-60.785 0.001-0.001 0.001-0.002 0.001-0.002 23.666-24.223 31.060-43.203 33.986-60.797z" />
<glyph unicode="&#xe03e;" d="M468.8 352c16.789 0 30.4 13.611 30.4 30.4v60.8h-60.8v30.4h-395.2c-16.72 0-30.4-13.679-30.4-30.4v-425.6c0-16.72 13.678-30.4 30.4-30.4h395.2v121.6h30.4c16.789 0 30.4 13.611 30.4 30.4v60.8h-60.8v30.4h30.4c16.789 0 30.4 13.611 30.4 30.4v60.8h-60.8v30.4h30.4zM286.4 351.844c33.493 0 60.643-27.151 60.643-60.643s-27.151-60.644-60.643-60.644c-33.492 0-60.643 27.151-60.643 60.644s27.151 60.643 60.643 60.643zM134.4 17.6h-30.4v425.6h30.4v-425.6zM377.6 108.8h-182.4v30.4c0 33.579 27.221 60.8 60.8 60.8v0h60.8c33.58 0 60.8-27.221 60.8-60.8v-30.4z" />
<glyph unicode="&#xe03f;" d="M465.18 470.4h-385.18v-64h-46.82c-8.8 0-17.18-6.264-17.18-15.064v-32c0-8.8 8.38-16.936 17.18-16.936h46.82v-32h-46.82c-8.8 0-17.18-6.264-17.18-15.064v-32c0-8.8 8.38-16.936 17.18-16.936h46.82v-32h-46.82c-8.8 0-17.18-6.264-17.18-15.064v-32c0-8.799 8.38-16.936 17.18-16.936h46.82v-32h-46.82c-8.8 0-17.18-6.264-17.18-15.064v-32c0-8.8 8.38-16.936 17.18-16.936h46.82v-64h385.18c17.673 0 30.82 15.263 30.82 32.936v416c0 17.673-13.147 31.064-30.82 31.064zM176 22.4h-64v32h17.18c8.8 0 14.82 8.136 14.82 16.936v32c0 8.801-6.021 15.064-14.82 15.064h-17.18v32h17.18c8.8 0 14.82 8.136 14.82 16.936v32c0 8.801-6.021 15.064-14.82 15.064h-17.18v32h17.18c8.8 0 14.82 8.136 14.82 16.936v32c0 8.801-6.021 15.064-14.82 15.064h-17.18v32h17.18c8.8 0 14.82 8.136 14.82 16.936v32c0 8.801-6.020 15.064-14.82 15.064h-17.18v32h64v-416z" />
<glyph unicode="&#xe041;" d="M271.2 473.6l-45.6-45.6 45.6-45.6-106.4-121.6h-106.4l83.6-83.6-129.2-171.292v-18.707h18.707l171.292 129.2 83.6-83.6v106.4l121.6 106.4 45.6-45.6 45.6 45.6-228 228zM225.6 215.2l-30.4 30.4 106.4 106.4 30.4-30.4-106.4-106.4z" />
<glyph unicode="&#xe042;" d="M256 473.6c-83.947 0-152-68.053-152-152 0-152 152-334.4 152-334.4s152 182.4 152 334.4c0 83.947-68.053 152-152 152zM256 230.4c-50.369 0-91.2 40.831-91.2 91.2s40.831 91.2 91.2 91.2 91.2-40.831 91.2-91.2-40.831-91.2-91.2-91.2z" />
<glyph unicode="&#xe043;" d="M256 473.6c-83.947 0-152-68.053-152-152 0-152 152-334.4 152-334.4s152 182.4 152 334.4c0 83.947-68.053 152-152 152zM256 228.5c-51.418 0-93.1 41.682-93.1 93.1s41.682 93.1 93.1 93.1 93.1-41.682 93.1-93.1-41.682-93.1-93.1-93.1zM197.1 321.6c0 32.529 26.37 58.9 58.9 58.9s58.9-26.37 58.9-58.9c0-32.529-26.37-58.9-58.9-58.9s-58.9 26.37-58.9 58.9z" />
<glyph unicode="&#xe044;" d="M256 473.6c-134.315 0-243.2-108.885-243.2-243.2s108.885-243.2 243.2-243.2 243.2 108.885 243.2 243.2-108.885 243.2-243.2 243.2zM256 32.8c-109.131 0-197.6 88.469-197.6 197.6s88.469 197.6 197.6 197.6 197.6-88.469 197.6-197.6-88.469-197.6-197.6-197.6zM301.6 276l-136.8 76h-30.4v-30.4l76-136.8 136.8-76h30.4v30.4l-76 136.8zM256 200c-16.79 0-30.4 13.611-30.4 30.4s13.611 30.4 30.4 30.4c16.789 0 30.4-13.611 30.4-30.4s-13.611-30.4-30.4-30.4z" />
<glyph unicode="&#xe045;" d="M12.8 382.4l152 60.8v-364.8l-152-60.8zM347.2 382.4v-364.8l-152 50.666v364.8zM499.2 443.2v-364.8l-121.6-48.64v364.8z" />
<glyph unicode="&#xe047;" d="M292.1 432.56c111.649 0 202.16-90.511 202.16-202.16s-90.51-202.16-202.16-202.16v43.32c42.429 0 82.316 16.522 112.317 46.523s46.523 69.889 46.523 112.317c0 42.427-16.522 82.316-46.523 112.317s-69.889 46.523-112.317 46.523c-42.427 0-82.316-16.522-112.317-46.523-23.077-23.076-38.167-52.005-43.91-83.437h84.026l-101.080-115.52-101.080 115.52h74.263c14.016 97.967 98.254 173.28 200.098 173.28zM378.74 259.28v-57.76h-115.52v144.4h57.76v-86.64z" />
<glyph unicode="&#xe048;" d="M325.704 117.703l-100.103 100.105v134.192h60.8v-109.007l82.296-82.296zM256 473.6c-134.315 0-243.2-108.885-243.2-243.2s108.885-243.2 243.2-243.2 243.2 108.885 243.2 243.2-108.885 243.2-243.2 243.2zM256 48c-100.737 0-182.4 81.663-182.4 182.4s81.663 182.4 182.4 182.4c100.737 0 182.4-81.663 182.4-182.4s-81.663-182.4-182.4-182.4z" />
<glyph unicode="&#xe049;" d="M256 473.6c-134.315 0-243.2-108.885-243.2-243.2s108.885-243.2 243.2-243.2 243.2 108.885 243.2 243.2-108.885 243.2-243.2 243.2zM325.704 117.703l-100.103 100.105v134.192h60.8v-109.007l82.296-82.296-42.993-42.993z" />
<glyph unicode="&#xe04a;" d="M286.4 212.592l51.895-51.897-42.991-42.992-69.704 69.704v103.793h60.8zM408 443.2c50.369 0 91.2-40.831 91.2-91.2 0-30.868-15.337-58.149-38.803-74.65-22.13 58.446-68.601 104.916-127.046 127.046 16.502 23.466 43.784 38.804 74.65 38.804zM178.65 404.397c-58.446-22.131-104.916-68.6-127.046-127.046-23.466 16.501-38.803 43.782-38.803 74.65 0 50.369 40.831 91.2 91.2 91.2 30.867 0 58.148-15.337 74.65-38.803zM256 382.4c-100.737 0-182.4-81.663-182.4-182.4 0-44.020 15.595-84.397 41.559-115.909l-11.159-96.89h30.4l30.396 54.81c26.83-15.522 57.977-24.409 91.204-24.409s64.372 8.887 91.202 24.409l-0.002-0.002 30.4-54.807h30.4l-11.163 96.885c25.968 31.514 41.563 71.892 41.563 115.915 0 100.737-81.663 182.4-182.4 182.4zM256 78.4c-67.157 0-121.6 54.442-121.6 121.6s54.442 121.6 121.6 121.6 121.6-54.442 121.6-121.6-54.442-121.6-121.6-121.6z" />
<glyph unicode="&#xe04c;" d="M499.913 93.6c0 136.8-121.6 106.4-121.6 212.8 0 8.816-0.849 16.35-2.398 22.766-7.995 53.684-43.774 96.767-90.142 109.896 0.411 1.875 0.627 3.815 0.627 5.799 0 15.807-13.68 28.738-30.4 28.738s-30.4-12.931-30.4-28.737c0-1.986 0.216-3.925 0.627-5.8-51.999-14.724-90.684-67.116-91.796-129.885-0.019-0.912-0.031-1.836-0.031-2.777 0-106.401-121.6-76.001-121.6-212.801 0-36.207 81.030-66.498 189.511-74.138 10.224-19.192 30.427-32.262 53.69-32.262s43.466 13.070 53.689 32.262c108.481 7.64 189.511 37.93 189.511 74.138 0 0.108-0.012 0.216-0.014 0.324l0.726-0.324zM405.267 67.904c-25.76-6.873-56.125-11.816-88.715-14.558-2.709 31.074-28.776 55.454-60.552 55.454s-57.843-24.38-60.552-55.454c-32.589 2.741-62.956 7.685-88.715 14.558-35.45 9.459-52.397 20.041-58.6 25.695 6.203 5.656 23.151 16.236 58.6 25.695 41.216 10.997 94.226 17.055 149.267 17.055s108.050-6.057 149.267-17.055c35.45-9.459 52.397-20.041 58.6-25.695-6.202-5.656-23.151-16.236-58.6-25.695z" />
<glyph unicode="&#xe04d;" d="M271.2 381.825v30.975h60.8v30.4c0 16.79-13.611 30.4-30.401 30.4h-91.199c-16.79 0-30.4-13.611-30.4-30.4v-30.4h60.8v-30.975c-102.029-7.761-182.4-93.005-182.4-197.025 0-109.131 88.469-197.6 197.6-197.6s197.6 88.469 197.6 197.6c0 104.018-80.371 189.263-182.4 197.025zM363.48 77.32c-28.709-28.709-66.879-44.52-107.48-44.52s-78.771 15.811-107.48 44.52c-28.709 28.709-44.52 66.88-44.52 107.48s15.811 78.771 44.52 107.48c27.569 27.568 63.863 43.233 102.654 44.435l-10.297-149.159c-0.883-12.488 5.921-17.956 15.121-17.956s16.007 5.468 15.123 17.956l-10.296 149.161c38.791-1.202 75.087-16.868 102.655-44.436 28.709-28.709 44.52-66.88 44.52-107.48s-15.811-78.771-44.52-107.48z" />
<glyph unicode="&#xe04e;" d="M180 291.2h60.8v-60.8h-60.8zM271.2 291.2h60.8v-60.8h-60.8zM362.4 291.2h60.8v-60.8h-60.8zM88.8 108.8h60.8v-60.8h-60.8zM180 108.8h60.8v-60.8h-60.8zM271.2 108.8h60.8v-60.8h-60.8zM180 200h60.8v-60.8h-60.8zM271.2 200h60.8v-60.8h-60.8zM362.4 200h60.8v-60.8h-60.8zM88.8 200h60.8v-60.8h-60.8zM423.2 473.6v-30.4h-60.8v30.4h-212.8v-30.4h-60.8v30.4h-60.8v-486.4h456v486.4h-60.8zM453.6 17.6h-395.2v334.4h395.2v-334.4z" />
<glyph unicode="&#xe04f;" d="M438.4 412.8h-45.6v-15.2c0-16.763-13.637-30.4-30.4-30.4s-30.4 13.637-30.4 30.4v15.2h-152v-15.2c0-16.763-13.637-30.4-30.4-30.4s-30.4 13.637-30.4 30.4v15.2h-45.6c-16.72 0-30.4-13.68-30.4-30.4v-334.4c0-16.72 13.68-30.4 30.4-30.4h364.8c16.72 0 30.4 13.68 30.4 30.4v334.4c0 16.72-13.68 30.4-30.4 30.4zM438.4 48.055c-0.016-0.019-0.036-0.039-0.055-0.055h-364.69c-0.019 0.016-0.039 0.036-0.054 0.055v273.545h364.8v-273.545zM149.6 382.4c8.394 0 15.2 6.806 15.2 15.2v60.8c0 8.394-6.806 15.2-15.2 15.2s-15.2-6.806-15.2-15.2v-60.8c0-8.394 6.806-15.2 15.2-15.2zM362.4 382.4c8.394 0 15.2 6.806 15.2 15.2v60.8c0 8.394-6.806 15.2-15.2 15.2s-15.2-6.806-15.2-15.2v-60.8c0-8.394 6.806-15.2 15.2-15.2zM286.4 291.2h-152v-30.4h121.6v-60.8h-121.6v-30.4h121.6v-60.8h-121.6v-30.4h152zM347.2 78.4h30.4v212.8h-60.8v-30.4h30.4zM427 6.2h-342c-16.72 0-30.4 9.88-30.4 26.6v-15.2c0-16.72 13.68-30.4 30.4-30.4h342c16.72 0 30.4 13.68 30.4 30.4v15.2c0-16.72-13.68-26.6-30.4-26.6z" />
<glyph unicode="&#xe050;" d="M134.4 443.2h243.2v-60.8h-243.2zM468.8 352h-425.6c-16.72 0-30.4-13.68-30.4-30.4v-152c0-16.72 13.678-30.4 30.4-30.4h91.2v-121.6h243.2v121.6h91.2c16.72 0 30.4 13.68 30.4 30.4v152c0 16.72-13.68 30.4-30.4 30.4zM347.2 48h-182.4v152h182.4v-152zM475.64 306.4c0-12.173-9.868-22.040-22.039-22.040-12.173 0-22.041 9.868-22.041 22.040s9.868 22.040 22.041 22.040c12.173 0 22.039-9.868 22.039-22.040z" />
<glyph unicode="&#xe051;" d="M472.178 392.533h-432.356c-14.863 0-27.023-12.16-27.023-27.023v-270.223c0-14.863 12.16-27.022 27.023-27.022h432.356c14.863 0 27.022 12.16 27.022 27.022v270.223c0 14.863-12.16 27.023-27.022 27.023zM283.022 338.489h54.045v-54.045h-54.044v54.045zM364.089 257.423v-54.045h-54.045v54.045h54.044zM201.956 338.489h54.044v-54.045h-54.044v54.045zM283.022 257.423v-54.045h-54.044v54.045h54.044zM120.889 338.489h54.044v-54.045h-54.044v54.045zM201.956 257.423v-54.045h-54.044v54.045h54.044zM66.844 338.489h27.022v-54.045h-27.023v54.045zM66.844 257.423h54.044v-54.045h-54.044v54.045zM93.867 122.311h-27.022v54.045h27.023v-54.044zM337.067 122.311h-216.178v54.045h216.178v-54.044zM445.156 122.311h-81.067v54.045h81.067v-54.044zM445.156 203.377h-54.045v54.045h54.044v-54.045zM445.156 284.445h-81.067v54.045h81.067v-54.045z" />
<glyph unicode="&#xe052;" d="M499.2 78.4v364.8h-486.4v-364.8h212.8v-30.4h-91.2v-30.4h243.2v30.4h-91.2v30.4h212.8zM73.6 382.4h364.8v-243.2h-364.8v243.2z" />
<glyph unicode="&#xe054;" d="M362.4 473.6h-212.8c-25.080 0-45.6-20.52-45.6-45.6v-395.2c0-25.080 20.52-45.6 45.6-45.6h212.8c25.080 0 45.6 20.52 45.6 45.6v395.2c0 25.080-20.52 45.6-45.6 45.6zM195.2 450.8h121.6v-15.2h-121.6v15.2zM256 17.6c-16.79 0-30.4 13.611-30.4 30.4s13.611 30.4 30.4 30.4 30.4-13.611 30.4-30.4-13.611-30.4-30.4-30.4zM377.6 108.8h-243.2v304h243.2v-304z" />
<glyph unicode="&#xe056;" d="M408 473.6h-304c-25.080 0-45.6-20.52-45.6-45.6v-395.2c0-25.080 20.52-45.6 45.6-45.6h304c25.080 0 45.6 20.52 45.6 45.6v395.2c0 25.080-20.52 45.6-45.6 45.6zM256 2.4c-8.394 0-15.2 6.805-15.2 15.2s6.806 15.2 15.2 15.2c8.394 0 15.2-6.805 15.2-15.2s-6.805-15.2-15.2-15.2zM392.8 48h-273.6v364.8h273.6v-364.8z" />
<glyph unicode="&#xe057;" d="M478.865 336.749c-42.184 6.065-87.106 10.457-133.986 12.929l78.322 78.322-30.4 30.4-106.665-106.664c-9.978 0.175-20.024 0.264-30.135 0.264v0l-121.6 121.6-30.4-30.4 92.243-92.243c-57.438-2.015-112.26-6.899-163.108-14.208-13.078-51.17-20.335-107.707-20.335-167.149s7.257-115.979 20.332-167.147c68.23-9.81 143.611-15.252 222.868-15.252s154.636 5.442 222.864 15.252c13.079 51.169 20.336 107.707 20.336 167.148s-7.257 115.979-20.336 167.149zM423.149 58.168c-51.172-6.539-107.707-10.168-167.149-10.168s-115.979 3.629-167.149 10.168c-9.808 34.113-15.251 71.804-15.251 111.432 0 39.63 5.442 77.321 15.251 111.433 51.17 6.539 107.706 10.167 167.149 10.167 59.44 0 115.977-3.628 167.146-10.167 9.812-34.113 15.254-71.804 15.254-111.433s-5.442-77.32-15.252-111.432z" />
<glyph unicode="&#xe058;" d="M347.2 473.6h-182.4l-91.2-60.8v-121.6h364.8v121.6l-91.2 60.8zM316.8 321.6h-30.4v20.266c0 5.574-4.56 10.134-10.134 10.134h-40.532c-5.572 0-10.133-4.56-10.133-10.134v-20.266h-30.4v50.666c0 5.574 4.561 10.134 10.133 10.134h101.332c5.574 0 10.135-4.56 10.135-10.134v-50.666zM73.6 139.199h364.8v121.601h-364.8v-121.601zM195.2 220.267c0 5.574 4.561 10.133 10.133 10.133h101.331c5.574 0 10.135-4.559 10.135-10.133v-50.668h-30.4v20.267c0 5.574-4.56 10.132-10.134 10.132h-40.532c-5.572 0-10.133-4.559-10.133-10.132v-20.267h-30.4v50.668zM73.6-12.8h364.8v121.599h-364.8v-121.599zM195.2 68.267c0 5.574 4.561 10.132 10.133 10.132h101.331c5.574 0 10.135-4.559 10.135-10.132v-50.668h-30.4v20.267c0 5.574-4.56 10.132-10.134 10.132h-40.532c-5.572 0-10.133-4.559-10.133-10.132v-20.267h-30.4v50.668z" />
<glyph unicode="&#xe059;" d="M347.2 382.4h-182.4l-152-182.4v-121.6c0-16.789 13.611-30.4 30.4-30.4h425.6c16.791 0 30.4 13.611 30.4 30.4v121.6l-152 182.4zM377.6 200l-60.8-60.8h-121.6l-60.8 60.8h-82.028l126.667 152h153.923l126.666-152h-82.028z" />
<glyph unicode="&#xe05a;" d="M347.2 382.4h-182.4l-152-182.4v-121.6c0-16.789 13.611-30.4 30.4-30.4h425.6c16.791 0 30.4 13.611 30.4 30.4v121.6l-152 182.4zM316.8 139.2h-121.6l-30.4 30.4h182.4l-30.4-30.4zM52.373 200l126.666 152h153.923l126.666-152h-407.255zM148.158 291.2h215.684l-25.334 30.4h-165.018zM97.492 230.4h317.018l-25.334 30.4h-266.351z" />
<glyph unicode="&#xe05b;" d="M439.586 473.6l31.941-271.491-35.853-4.218-28.524 242.459h-302.298l-28.525-242.459-35.853 4.218 31.94 271.491zM134.4 412.8h243.2v-30.4h-243.2zM134.4 352h243.2v-30.4h-243.2zM134.4 291.2h243.2v-30.4h-243.2zM134.4 230.4h243.2v-30.4h-243.2zM484 169.6h-456c-8.36 0-13.037-6.488-10.393-14.42l51.186-153.56c2.644-7.931 11.647-14.42 20.007-14.42h334.4c8.36 0 17.362 6.488 20.007 14.42l51.187 153.561c2.644 7.93-2.034 14.419-10.394 14.419zM316.8 108.8h-121.6v30.4h121.6v-30.4z" />
<glyph unicode="&#xe05c;" d="M408 443.2h-304l-91.2-91.2v-319.2c0-8.395 6.805-15.2 15.2-15.2h456c8.394 0 15.2 6.805 15.2 15.2v319.2l-91.2 91.2zM256 78.4l-152 121.6h91.2v91.2h121.6v-91.2h91.2l-152-121.6zM86.192 382.4l30.4 30.4h278.815l30.4-30.4h-339.615z" />
<glyph unicode="&#xe05d;" d="M408 443.2h-304l-91.2-91.2v-319.2c0-8.395 6.805-15.2 15.2-15.2h456c8.394 0 15.2 6.805 15.2 15.2v319.2l-91.2 91.2zM316.8 169.6v-91.2h-121.6v91.2h-91.2l152 121.6 152-121.6h-91.2zM86.192 382.4l30.4 30.4h278.813l30.4-30.4h-339.613z" />
<glyph unicode="&#xe060;" d="M438.4 473.6h-425.6v-486.4h486.4v425.6l-60.8 60.8zM256 412.8h60.8v-121.6h-60.8v121.6zM438.4 48h-364.8v364.8h30.4v-152h273.6v152h35.615l25.185-25.184v-339.616z" />
<glyph unicode="&#xe062;" d="M256 443.2c-67.157 0-127.954-27.227-171.965-71.239l-71.235 71.239v-182.4h182.4l-68.177 68.173c33.010 33.009 78.609 53.427 128.978 53.427 100.733 0 182.4-81.664 182.4-182.4 0-54.481-23.889-103.377-61.759-136.8l40.216-45.6c50.493 44.563 82.342 109.761 82.342 182.4 0 134.316-108.885 243.2-243.2 243.2z" />
<glyph unicode="&#xe063;" d="M12.8 200c0-72.639 31.848-137.837 82.341-182.4l40.217 45.6c-37.87 33.423-61.757 82.32-61.757 136.8 0 100.736 81.666 182.4 182.4 182.4 50.37 0 95.968-20.418 128.976-53.427l-68.177-68.173h182.4v182.4l-71.236-71.24c-44.010 44.012-104.806 71.24-171.964 71.24-134.315 0-243.2-108.884-243.2-243.2z" />
<glyph unicode="&#xe068;" d="M137.316 473.6c-54.021-97.865-63.123-247.145 149.083-242.167v120.567l182.4-182.4-182.4-182.4v117.976c-254.106-6.623-282.421 224.302-149.083 368.423z" />
<glyph unicode="&#xe069;" d="M225.6 105.176v-117.976l-182.4 182.4 182.4 182.4v-120.566c212.206-4.978 203.105 144.301 149.084 242.167 133.337-144.122 105.022-375.046-149.084-368.424z" />
<glyph unicode="&#xe06a;" d="M256 443.2c134.315 0 243.2-88.469 243.2-197.6s-108.885-197.6-243.2-197.6c-12.899 0-25.56 0.824-37.916 2.396-52.239-52.24-114.594-61.608-174.883-62.983v12.785c32.554 15.95 60.8 45.002 60.8 78.202 0 4.633-0.36 9.182-1.028 13.63-55.003 36.226-90.172 91.558-90.172 153.57 0 109.132 108.885 197.6 243.2 197.6z" />
<glyph unicode="&#xe06c;" d="M215.467 446.578v0c111.929 0 202.667-73.43 202.667-164.011s-90.738-164.012-202.667-164.012c-10.749 0-21.299 0.683-31.596 1.989-43.534-43.36-93.806-51.134-144.048-52.277v10.613c27.128 13.238 48.977 37.352 48.977 64.91 0 3.844-0.3 7.62-0.858 11.313-45.836 30.068-75.142 75.995-75.142 127.465 0 90.581 90.737 164.011 202.667 164.011zM433.333 78.955c0-23.62 15.332-44.29 38.844-55.637v-9.096c-43.543 0.979-83.51 7.643-121.238 44.809-8.926-1.118-18.069-1.705-27.384-1.705-40.31 0-77.439 10.875-107.082 29.151 61.084 0.214 118.754 19.783 162.485 55.173 22.043 17.84 39.433 38.771 51.686 62.213 12.99 24.855 19.577 51.335 19.577 78.705 0 4.412-0.19 8.798-0.531 13.16 30.64-25.305 49.509-59.797 49.509-97.819 0-44.117-25.4-83.483-65.123-109.256-0.482-3.165-0.743-6.401-0.743-9.697z" />
<glyph unicode="&#xe070;" d="M311.413 135.032c-11.055 1.759-11.307 32.157-11.307 32.157s32.484 32.158 39.564 75.401c19.045 0 30.809 45.973 11.761 62.148 0.795 17.027 24.48 133.662-95.431 133.662s-96.225-116.635-95.432-133.662c-19.047-16.175-7.285-62.148 11.761-62.148 7.079-43.243 39.564-75.401 39.564-75.401s-0.252-30.398-11.307-32.157c-35.61-5.666-168.586-64.317-168.586-128.632h448c0 64.315-132.976 122.966-168.587 128.632z" />
<glyph unicode="&#xe071;" d="M361.922 103.207c-9.002 1.42-9.207 25.961-9.207 25.961s26.452 25.962 32.216 60.872c15.51 0 25.087 37.116 9.578 50.174 0.647 13.746 19.935 107.909-77.709 107.909-97.643 0-78.355-94.162-77.709-107.909-15.511-13.058-5.932-50.174 9.577-50.174 5.763-34.911 32.217-60.872 32.217-60.872s-0.205-24.541-9.207-25.961c-28.998-4.575-137.278-51.925-137.278-103.847h364.8c0 51.922-108.28 99.272-137.278 103.847zM176.226 94.925c20.945 12.896 46.373 24.846 67.231 32.026-7.482 10.655-15.815 25.144-21.056 42.305-7.318 5.969-13.274 14.502-17.099 24.986-3.832 10.5-5.283 22.255-4.089 33.1 0.857 7.786 3.077 15.041 6.483 21.417-2.066 22.128-3.522 65.566 24.913 97.248 11.026 12.286 24.964 21.118 41.657 26.451-2.98 30.761-18.601 66.865-79.065 66.865-97.643 0-78.355-94.162-77.709-107.908-15.511-13.058-5.932-50.173 9.577-50.173 5.763-34.911 32.218-60.872 32.218-60.872s-0.205-24.541-9.208-25.961c-28.998-4.576-137.278-51.926-137.278-103.849h156.558c2.237 1.46 4.516 2.916 6.868 4.365z" />
<glyph unicode="&#xe075;" d="M160 377.6c0 53.019 42.981 96 96 96s96-42.981 96-96c0-53.019-42.981-96-96-96s-96 42.981-96 96zM384.039 249.6h-17.712l-99.552-202.122 37.225 186.122-48 48-48-48 37.225-186.122-99.551 202.122h-17.712c-63.962 0-63.962-42.993-63.962-96v-160h384v160c0 53.007 0 96-63.961 96z" />
<glyph unicode="&#xe079;" d="M499.2 230.4c-0.607 31.759-7.498 63.42-20.224 92.369-12.685 28.975-31.094 55.223-53.695 76.912-22.587 21.705-49.373 38.865-78.368 50.185-28.977 11.364-60.133 16.792-90.914 16.134-30.785-0.609-61.433-7.303-89.459-19.644-28.048-12.3-53.458-30.148-74.448-52.048-21.007-21.889-37.601-47.837-48.538-75.904-10.979-28.054-16.211-58.197-15.555-88.003 0.611-29.811 7.108-59.446 19.064-86.548 11.917-27.123 29.201-51.694 50.402-71.986 21.19-20.308 46.299-36.339 73.441-46.892 27.131-10.594 56.262-15.628 85.093-14.975 28.837 0.613 57.457 6.913 83.636 18.484 26.197 11.534 49.93 28.253 69.524 48.756 19.609 20.491 35.076 44.762 45.245 70.979 6.191 15.892 10.393 32.49 12.608 49.304 0.592-0.034 1.187-0.057 1.787-0.057 16.789 0 30.4 13.61 30.4 30.4 0 0.853-0.045 1.697-0.113 2.533h0.113zM450.896 149.674c-11.149-25.271-27.305-48.165-47.109-67.060-19.793-18.909-43.225-33.813-68.516-43.6-25.284-9.822-52.387-14.464-79.27-13.814-26.887 0.616-53.483 6.524-77.815 17.325-24.344 10.767-46.4 26.358-64.597 45.463-18.21 19.094-32.551 41.688-41.953 66.053-9.438 24.36-13.883 50.452-13.236 76.359 0.618 25.912 6.331 51.496 16.746 74.903 10.382 23.417 25.412 44.636 43.817 62.135 18.397 17.512 40.151 31.288 63.59 40.306 23.435 9.054 48.514 13.303 73.447 12.656 24.938-0.62 49.508-6.136 71.992-16.166 22.492-9.999 42.871-24.463 59.671-42.171 16.813-17.697 30.024-38.614 38.66-61.127 8.668-22.511 12.721-46.578 12.077-70.535h0.113c-0.068-0.836-0.113-1.68-0.113-2.533 0-15.681 11.871-28.583 27.116-30.222-2.957-16.541-7.851-32.688-14.62-47.971z" />
<glyph unicode="&#xe07e;" d="M43.2 473.6h182.4v-30.4h-182.4zM286.4 473.6h182.4v-30.4h-182.4zM465 321.6h-26.6v121.6h-121.6v-121.6h-121.6v121.6h-121.6v-121.6h-26.6c-18.81 0-34.2-15.39-34.2-34.2v-266c0-18.81 15.39-34.2 34.2-34.2h144.4c18.81 0 34.2 15.39 34.2 34.2v178.6h60.8v-178.6c0-18.81 15.39-34.2 34.2-34.2h144.4c18.81 0 34.2 15.39 34.2 34.2v266c0 18.81-15.39 34.2-34.2 34.2zM178.1 17.6h-117.8c-9.405 0-17.1 6.84-17.1 15.2s7.695 15.2 17.1 15.2h117.8c9.405 0 17.1-6.84 17.1-15.2s-7.695-15.2-17.1-15.2zM271.2 230.4h-30.4c-8.36 0-15.2 6.84-15.2 15.2s6.84 15.2 15.2 15.2h30.4c8.36 0 15.2-6.84 15.2-15.2s-6.84-15.2-15.2-15.2zM451.7 17.6h-117.8c-9.405 0-17.1 6.84-17.1 15.2s7.695 15.2 17.1 15.2h117.8c9.405 0 17.1-6.84 17.1-15.2s-7.695-15.2-17.1-15.2z" />
<glyph unicode="&#xe07f;" d="M484.125 59.687l-115.212 97.99c-11.91 10.719-24.647 15.64-34.937 15.165 27.197 31.858 43.625 73.187 43.625 118.359 0 100.737-81.663 182.4-182.4 182.4s-182.4-81.663-182.4-182.4 81.663-182.4 182.4-182.4c45.172 0 86.501 16.428 118.359 43.626-0.475-10.289 4.446-23.027 15.165-34.937l97.99-115.212c16.778-18.642 44.185-20.213 60.904-3.494s15.149 44.127-3.493 60.904zM195.2 169.6c-67.157 0-121.6 54.443-121.6 121.6s54.442 121.6 121.6 121.6 121.6-54.442 121.6-121.6-54.442-121.6-121.6-121.6z" />
<glyph unicode="&#xe080;" d="M484.125 59.687l-115.212 97.99c-11.91 10.719-24.647 15.64-34.937 15.165 27.197 31.858 43.625 73.187 43.625 118.359 0 100.737-81.663 182.4-182.4 182.4s-182.4-81.663-182.4-182.4 81.663-182.4 182.4-182.4c45.172 0 86.501 16.428 118.359 43.626-0.475-10.289 4.446-23.027 15.165-34.937l97.99-115.212c16.778-18.642 44.185-20.213 60.904-3.494s15.149 44.127-3.493 60.904zM195.2 169.6c-67.157 0-121.6 54.443-121.6 121.6s54.442 121.6 121.6 121.6 121.6-54.442 121.6-121.6-54.442-121.6-121.6-121.6zM225.6 382.4h-60.8v-60.8h-60.8v-60.8h60.8v-60.8h60.8v60.8h60.8v60.8h-60.8z" />
<glyph unicode="&#xe081;" d="M484.125 59.687l-115.212 97.99c-11.91 10.719-24.647 15.64-34.937 15.165 27.197 31.858 43.625 73.187 43.625 118.359 0 100.737-81.663 182.4-182.4 182.4s-182.4-81.663-182.4-182.4 81.663-182.4 182.4-182.4c45.172 0 86.501 16.428 118.359 43.626-0.475-10.289 4.446-23.027 15.165-34.937l97.99-115.212c16.778-18.642 44.185-20.213 60.904-3.494s15.149 44.127-3.493 60.904zM195.2 169.6c-67.157 0-121.6 54.443-121.6 121.6s54.442 121.6 121.6 121.6 121.6-54.442 121.6-121.6-54.442-121.6-121.6-121.6zM104 321.6h182.4v-60.8h-182.4z" />
<glyph unicode="&#xe082;" d="M499.2 473.6v-182.4l-65.673 65.674-100.7-100.7-51.053 51.053 100.7 100.7-65.673 65.673zM129.526 407.927l100.7-100.7-51.053-51.053-100.7 100.7-65.674-65.673v182.4h182.4zM433.526 103.926l65.673 65.673v-182.4h-182.4l65.673 65.673-100.7 100.7 51.053 51.053zM230.226 153.573l-100.7-100.7 65.673-65.673h-182.4v182.4l65.674-65.673 100.7 100.7z" />
<glyph unicode="&#xe083;" d="M43.2 200h182.4v-182.4l-65.673 65.673-95.95-95.95-51.053 51.053 95.95 95.95zM403.127 134.326l95.95-95.95-51.053-51.053-95.95 95.95-65.673-65.673v182.4h182.4zM468.8 260.8h-182.4v182.4l65.673-65.673 95.95 95.95 51.053-51.053-95.95-95.95zM159.927 377.526l65.674 65.673v-182.4h-182.4l65.674 65.673-95.95 95.95 51.053 51.053z" />
<glyph unicode="&#xe084;" d="M499.2 473.6v-197.6l-76 76-91.2-91.2-45.6 45.6 91.2 91.2-76 76zM225.6 154.4l-91.2-91.2 76-76h-197.6v197.6l76-76 91.2 91.2z" />
<glyph unicode="&#xe085;" d="M225.6 200v-197.6l-76 76-91.2-91.2-45.6 45.6 91.2 91.2-76 76zM499.2 428l-91.2-91.2 76-76h-197.6v197.6l76-76 91.2 91.2z" />
<glyph unicode="&#xe086;" d="M488.813 324.335l-48.026 48.024c-11.776 11.777-31.050 31.050-42.827 42.828l-48.026 48.024c-11.776 11.777-32.753 13.854-46.611 4.615l-131.308-87.538c-13.858-9.239-19.103-28.988-11.655-43.885l33.481-66.962c1.023-2.046 2.207-4.226 3.51-6.488l-169.351-169.352-15.2-106.4h91.2v30.4h60.8v60.8h60.8v60.8h60.8v33.813c3.038-1.81 5.954-3.428 8.641-4.771l66.961-33.482c14.899-7.449 34.647-2.203 43.885 11.656l87.54 131.309c9.24 13.856 7.162 34.832-4.614 46.61zM84.349 67.652l-21.495 21.495 147.996 147.996 21.495-21.496-147.996-147.996zM448.385 272.312l-21.497-21.496c-5.912-5.911-15.584-5.911-21.495 0l-128.976 128.977c-5.912 5.911-5.912 15.584 0 21.495l21.497 21.496c5.912 5.911 15.584 5.911 21.495 0l128.976-128.976c5.912-5.911 5.912-15.584 0-21.495z" />
<glyph unicode="&#xe087;" d="M347.2 473.6c-83.947 0-152-68.053-152-152 0-9.513 0.882-18.817 2.554-27.846l-184.953-184.954v-91.2c0-16.789 13.611-30.4 30.4-30.4h30.4v30.4h60.8v60.8h60.8v60.8h60.8l39.445 39.445c16.154-5.85 33.58-9.045 51.755-9.045 83.947 0 152 68.053 152 152s-68.053 152-152 152zM392.74 321.54c-25.185 0-45.6 20.416-45.6 45.6s20.416 45.6 45.6 45.6 45.6-20.416 45.6-45.6-20.416-45.6-45.6-45.6z" />
<glyph unicode="&#xe089;" d="M392 278.4h-8v96c0 52.935-43.065 96-96 96h-64c-52.935 0-96-43.065-96-96v-96h-8c-13.2 0-24-10.8-24-24v-240c0-13.2 10.8-24 24-24h272c13.2 0 24 10.8 24 24v240c0 13.2-10.8 24-24 24zM288 54.4h-64l13.92 69.6c-8.404 5.767-13.92 15.437-13.92 26.4 0 17.673 14.327 32 32 32s32-14.327 32-32c0-10.963-5.516-20.635-13.92-26.4l13.92-69.6zM320 278.4h-128v96c0 17.645 14.355 32 32 32h64c17.645 0 32-14.355 32-32v-96z" />
<glyph unicode="&#xe08a;" d="M400 470.4h-64c-52.935 0-96-43.065-96-96v-96h-200c-13.2 0-24-10.8-24-24v-240c0-13.2 10.8-24 24-24h272c13.2 0 24 10.8 24 24v240c0 13.2-10.8 24-24 24h-8v96c0 17.645 14.355 32 32 32h64c17.645 0 32-14.355 32-32v-96h64v96c0 52.935-43.065 96-96 96zM208 54.4h-64l13.92 69.6c-8.404 5.767-13.92 15.437-13.92 26.4 0 17.673 14.327 32 32 32s32-14.327 32-32c0-10.963-5.516-20.635-13.92-26.4l13.92-69.6z" />
<glyph unicode="&#xe08b;" d="M489.193 85.109l-218.762 187.511c10.188 19.142 15.969 40.984 15.969 64.18 0 75.552-61.248 136.8-136.8 136.8-13.82 0-27.156-2.058-39.732-5.868l79.035-79.035c11.823-11.822 11.823-31.169 0-42.992l-48.208-48.208c-11.822-11.823-31.169-11.823-42.993 0l-79.035 79.035c-3.811-12.575-5.868-25.912-5.868-39.732 0-75.552 61.248-136.8 136.8-136.8 23.196 0 45.038 5.781 64.18 15.969l187.511-218.762c10.882-12.694 29.457-13.408 41.279-1.586l48.209 48.209c11.822 11.822 11.108 30.397-1.586 41.279z" />
<glyph unicode="&#xe08c;" d="M225.6 412.8v7.6c0 12.54-10.26 22.8-22.8 22.8h-76c-12.54 0-22.8-10.26-22.8-22.8v-7.6h-91.2v-60.8h91.2v-7.6c0-12.54 10.26-22.8 22.8-22.8h76c12.54 0 22.8 10.26 22.8 22.8v7.6h273.6v60.8h-273.6zM134.4 352v60.8h60.8v-60.8h-60.8zM408 268.4c0 12.54-10.26 22.8-22.8 22.8h-76c-12.54 0-22.8-10.26-22.8-22.8v-7.6h-273.6v-60.8h273.6v-7.6c0-12.54 10.26-22.8 22.8-22.8h76c12.54 0 22.8 10.26 22.8 22.8v7.6h91.2v60.8h-91.2v7.6zM316.8 200v60.8h60.8v-60.8h-60.8zM225.6 116.4c0 12.54-10.26 22.8-22.8 22.8h-76c-12.54 0-22.8-10.26-22.8-22.8v-7.6h-91.2v-60.8h91.2v-7.6c0-12.54 10.26-22.8 22.8-22.8h76c12.54 0 22.8 10.26 22.8 22.8v7.6h273.6v60.8h-273.6v7.6zM134.4 48v60.8h60.8v-60.8h-60.8z" />
<glyph unicode="&#xe08d;" d="M438.4 260.8h7.6c12.54 0 22.8 10.26 22.8 22.8v76c0 12.54-10.26 22.8-22.8 22.8h-7.6v91.2h-60.8v-91.2h-7.6c-12.54 0-22.8-10.26-22.8-22.8v-76c0-12.54 10.26-22.8 22.8-22.8h7.6v-273.6h60.8v273.6zM377.6 352h60.8v-60.8h-60.8v60.8zM294 78.4c12.54 0 22.8 10.26 22.8 22.8v76c0 12.54-10.26 22.8-22.8 22.8h-7.6v273.6h-60.8v-273.6h-7.6c-12.54 0-22.8-10.26-22.8-22.8v-76c0-12.54 10.26-22.8 22.8-22.8h7.6v-91.2h60.8v91.2h7.6zM225.6 169.6h60.8v-60.8h-60.8v60.8zM142 260.8c12.54 0 22.8 10.26 22.8 22.8v76c0 12.54-10.26 22.8-22.8 22.8h-7.6v91.2h-60.8v-91.2h-7.6c-12.54 0-22.8-10.26-22.8-22.8v-76c0-12.54 10.26-22.8 22.8-22.8h7.6v-273.6h60.8v273.6h7.6zM73.6 352h60.8v-60.8h-60.8v60.8z" />
<glyph unicode="&#xe08e;" d="M408 268.4c0 12.54-10.26 22.8-22.8 22.8h-76c-12.54 0-22.8-10.26-22.8-22.8v-7.6h-273.6v-60.8h273.6v-7.6c0-12.54 10.26-22.8 22.8-22.8h76c12.54 0 22.8 10.26 22.8 22.8v7.6h91.2v60.8h-91.2zM316.8 200v60.8h60.8v-60.8z" />
<glyph unicode="&#xe08f;" d="M185.568 130.625l19.617 27.462-21.495 21.497-27.464-19.615c-5.093 2.847-10.547 5.118-16.276 6.741l-5.549 33.29h-30.4l-5.548-33.291c-5.73-1.623-11.183-3.894-16.276-6.741l-27.463 19.616-21.496-21.497 19.617-27.462c-2.847-5.092-5.117-10.548-6.741-16.276l-33.291-5.549v-30.4l33.291-5.549c1.623-5.728 3.894-11.183 6.741-16.276l-19.617-27.462 21.495-21.497 27.464 19.615c5.093-2.847 10.547-5.118 16.276-6.741l5.549-33.29h30.4l5.548 33.291c5.73 1.623 11.184 3.894 16.276 6.741l27.464-19.615 21.495 21.497-19.617 27.462c2.847 5.092 5.118 10.548 6.741 16.276l33.292 5.548v30.4l-33.291 5.549c-1.624 5.728-3.894 11.183-6.741 16.276zM119.2 63.2c-16.79 0-30.4 13.611-30.4 30.4s13.609 30.4 30.4 30.4 30.4-13.611 30.4-30.4-13.609-30.4-30.4-30.4zM499.2 291.2v30.4l-32.007 5.819c-0.59 3.822-1.345 7.59-2.244 11.301l27.34 17.622-11.634 28.086-31.798-6.873c-2.002 3.282-4.145 6.469-6.409 9.561l18.528 26.763-21.497 21.495-26.762-18.528c-3.093 2.264-6.279 4.406-9.562 6.41l6.873 31.798-28.086 11.635-17.623-27.34c-3.711 0.899-7.478 1.654-11.3 2.244l-5.82 32.007h-30.4l-5.82-32.007c-3.822-0.59-7.589-1.345-11.3-2.244l-17.622 27.34-28.086-11.634 6.873-31.798c-3.282-2.002-6.47-4.146-9.562-6.409l-26.762 18.528-21.495-21.495 18.528-26.762c-2.264-3.093-4.407-6.279-6.41-9.562l-31.798 6.872-11.633-28.086 27.34-17.622c-0.899-3.711-1.654-7.478-2.244-11.301l-32.007-5.819v-30.4l32.006-5.819c0.59-3.822 1.345-7.589 2.244-11.3l-27.34-17.623 11.633-28.086 31.798 6.873c2.002-3.282 4.146-6.469 6.41-9.562l-18.528-26.763 21.495-21.497 26.762 18.528c3.093-2.264 6.28-4.406 9.561-6.409l-6.873-31.798 28.086-11.634 17.623 27.34c3.709-0.899 7.478-1.654 11.3-2.244l5.82-32.007h30.4l5.82 32.007c3.821 0.59 7.589 1.345 11.3 2.244l17.623-27.34 28.086 11.634-6.873 31.798c3.283 2.002 6.469 4.145 9.562 6.409l26.762-18.528 21.497 21.497-18.528 26.763c2.264 3.093 4.406 6.28 6.409 9.561l31.798-6.872 11.634 28.086-27.34 17.623c0.899 3.71 1.654 7.477 2.244 11.3l32.007 5.819zM332 240.28c-36.517 0-66.12 29.603-66.12 66.12s29.602 66.12 66.12 66.12 66.12-29.603 66.12-66.12c0-36.517-29.602-66.12-66.12-66.12z" />
<glyph unicode="&#xe090;" d="M499.2 184.755v91.29l-69.718 11.619c-2.83 8.613-6.281 16.942-10.305 24.938l41.065 57.491-64.55 64.552-57.392-40.995c-8.032 4.063-16.406 7.547-25.065 10.404l-11.591 69.546h-91.29l-11.591-69.547c-8.66-2.856-17.032-6.341-25.064-10.404l-57.394 40.995-64.552-64.552 41.066-57.492c-4.023-7.994-7.474-16.324-10.303-24.937l-69.718-11.619v-91.289l69.881-11.647c2.831-8.535 6.275-16.791 10.28-24.714l-41.206-57.688 64.552-64.55 57.785 41.274c7.886-3.966 16.097-7.376 24.588-10.181l11.674-70.049h91.289l11.675 70.050c8.49 2.805 16.702 6.215 24.589 10.18l57.784-41.274 64.55 64.55-41.204 57.687c4.005 7.924 7.447 16.18 10.279 24.715l69.881 11.646zM256 169.6c-33.578 0-60.8 27.221-60.8 60.8 0 33.578 27.221 60.8 60.8 60.8s60.8-27.221 60.8-60.8c0-33.58-27.221-60.8-60.8-60.8z" />
<glyph unicode="&#xe091;" d="M492.548 79.837l-143.233 143.233c-8.868 8.868-23.377 8.868-32.244 0l-10.748-10.748-87.4 87.4 143.476 143.477h-152l-67.478-67.478-6.678 6.678h-32.244v-32.244l6.677-6.678-97.877-97.879 76-76 97.877 97.877 87.4-87.4-10.748-10.748c-8.868-8.868-8.868-23.377 0-32.244l143.233-143.233c8.868-8.868 23.377-8.868 32.244 0l53.74 53.74c8.868 8.866 8.868 23.377 0.001 32.244z" />
<glyph unicode="&#xe092;" d="M134.4 382.4l-60.8 60.8h-30.4v-30.4l60.8-60.8zM164.8 473.6h30.4v-60.8h-30.4zM286.4 321.6h60.8v-30.4h-60.8zM316.8 412.8v30.4h-30.4l-60.8-60.8 30.4-30.4zM12.8 321.6h60.8v-30.4h-60.8zM164.8 200h30.4v-60.8h-30.4zM43.2 200v-30.4h30.4l60.8 60.8-30.4 30.4zM492.55 54.65l-302.156 302.156c-8.868 8.867-23.376 8.867-32.244 0l-28.556-28.556c-8.868-8.868-8.868-23.376 0-32.244l302.156-302.156c8.868-8.868 23.377-8.868 32.244 0l28.556 28.556c8.868 8.868 8.868 23.377 0 32.244zM240.8 215.2l-91.2 91.2 30.4 30.4 91.2-91.2-30.4-30.4z" />
<glyph unicode="&#xe093;" d="M438.4 352h-91.2v60.8c0 16.72-13.68 30.4-30.4 30.4h-121.6c-16.72 0-30.4-13.68-30.4-30.4v-60.8h-91.2c-33.44 0-60.8-27.36-60.8-60.8v-243.2c0-33.44 27.36-60.8 60.8-60.8h364.8c33.44 0 60.8 27.36 60.8 60.8v243.2c0 33.44-27.36 60.8-60.8 60.8zM195.2 412.8h121.6v-60.8h-121.6v60.8zM377.6 139.2h-91.2v-91.2h-60.8v91.2h-91.2v60.8h91.2v91.2h60.8v-91.2h91.2v-60.8z" />
<glyph unicode="&#xe094;" d="M499.2 200v30.4h-91.813c-2.784 34.526-15.099 66.037-34.043 91.319h76.923l33.279 133.114-29.493 7.373-27.522-110.086h-82.973c-0.423 0.33-0.853 0.653-1.281 0.976 3.188 9.264 4.922 19.201 4.922 29.542 0.001 50.236-40.83 90.962-91.199 90.962s-91.2-40.726-91.2-90.962c0-10.341 1.733-20.279 4.922-29.542-0.428-0.325-0.857-0.647-1.281-0.976h-82.973l-27.522 110.086-29.492-7.373 33.279-133.114h76.924c-18.945-25.281-31.258-56.792-34.042-91.318h-91.813v-30.4h91.851c1.806-21.69 7.367-42.185 15.978-60.682h-58.896l-33.279-133.113 29.493-7.374 27.522 110.087h53.368c27.879-37.065 70.013-60.681 117.163-60.681s89.284 23.616 117.165 60.682h53.368l27.522-110.087 29.493 7.374-33.279 133.113h-58.896c8.612 18.495 14.172 38.991 15.977 60.681h91.851z" />
<glyph unicode="&#xe095;" d="M225.6 200v212.8c-117.526 0-212.8-95.274-212.8-212.8s95.273-212.8 212.8-212.8 212.8 95.274 212.8 212.8c0 34.216-8.089 66.54-22.437 95.182l-190.363-95.182zM446.363 355.981c-34.937 69.738-107.053 117.619-190.363 117.619v-212.8l190.363 95.182z" />
<glyph unicode="&#xe096;" d="M73.6 48h425.6v-60.8h-486.4v486.4h60.8zM149.6 78.4c-25.184 0-45.6 20.416-45.6 45.6s20.416 45.6 45.6 45.6c1.344 0 2.671-0.070 3.984-0.183l49.016 81.694c-4.674 7.159-7.4 15.704-7.4 24.891 0 25.184 20.416 45.6 45.6 45.6s45.6-20.416 45.6-45.6c0-9.188-2.726-17.733-7.401-24.891l49.016-81.694c1.314 0.113 2.641 0.183 3.985 0.183 1.014 0 2.018-0.045 3.017-0.109l80.919 141.608c-5.005 7.319-7.935 16.167-7.935 25.702 0 25.185 20.416 45.6 45.6 45.6s45.6-20.416 45.6-45.6c0-25.184-20.416-45.6-45.6-45.6-1.017 0-2.018 0.045-3.017 0.11l-80.919-141.609c5.005-7.318 7.935-16.167 7.935-25.702 0-25.185-20.416-45.6-45.6-45.6s-45.6 20.416-45.6 45.6c0 9.187 2.726 17.733 7.399 24.891l-49.016 81.693c-1.314-0.113-2.641-0.184-3.984-0.184s-2.671 0.070-3.984 0.184l-49.016-81.694c4.674-7.158 7.4-15.704 7.4-24.89 0-25.185-20.416-45.6-45.6-45.6z" />
<glyph unicode="&#xe097;" d="M12.8 78.4h486.4v-60.8h-486.4zM73.6 200h60.8v-91.2h-60.8zM164.8 321.6h60.8v-212.8h-60.8zM256 230.4h60.8v-121.6h-60.8zM347.2 412.8h60.8v-304h-60.8z" />
<glyph unicode="&#xe098;" d="M144 307.2h-96c-8.8 0-16-7.2-16-16v-288c0-8.8 7.2-16 16-16h96c8.8 0 16 7.2 16 16v288c0 8.8-7.2 16-16 16zM144 19.2h-96v128h96v-128zM304 371.2h-96c-8.8 0-16-7.2-16-16v-352c0-8.8 7.2-16 16-16h96c8.8 0 16 7.2 16 16v352c0 8.8-7.2 16-16 16zM304 19.2h-96v160h96v-160zM464 435.2h-96c-8.8 0-16-7.2-16-16v-416c0-8.8 7.2-16 16-16h96c8.8 0 16 7.2 16 16v416c0 8.8-7.2 16-16 16zM464 19.2h-96v192h96v-192z" />
<glyph unicode="&#xe099;" d="M379.27 321.6c8.61 6.118 16.868 12.928 24.436 20.495 15.866 15.866 26.479 35.387 29.883 54.968 3.733 21.464-1.744 41.392-15.024 54.673-10.592 10.591-24.942 16.191-41.498 16.191-23.575 0-48.413-11.316-68.144-31.047-31.576-31.576-49.983-75.163-59.886-106.268-7.334 31.256-21.948 73.456-50.358 101.868-15.244 15.244-34.729 23.071-53.127 23.071-15.036 0-29.346-5.227-40.023-15.906-23.743-23.745-20.535-65.448 7.166-93.149 9.876-9.876 21.421-18.079 33.592-24.895h-103.087v-121.6h30.4v-212.8h364.8v212.801h30.4v121.6h-89.53zM333.105 412.697c13.169 13.169 29.603 21.030 43.962 21.030 5.082 0 12.212-1.070 17.314-6.174 12.364-12.364 5.421-40.996-14.858-61.274-20.875-20.875-48.954-35.23-73.355-44.678h-24.069c8.82 27.335 24.728 64.816 51.007 91.096zM123.918 397.178c-0.334 4.332-0.023 12.468 5.793 18.284 4.866 4.866 11.299 5.888 15.84 5.888v0c10.097 0 20.648-4.757 28.942-13.053 16.089-16.089 29.339-41.692 38.317-74.041 0.243-0.874 0.479-1.743 0.71-2.606-0.863 0.231-1.732 0.468-2.606 0.71-32.35 8.98-57.951 22.229-74.040 38.319-7.518 7.517-12.24 17.176-12.958 26.498zM225.6 17.6h-121.6v197.6h121.6v-197.6zM225.6 230.4h-152v60.8h152v-60.8zM408 17.6h-121.6v197.6h121.6v-197.6zM438.4 230.4h-152v60.8h152v-60.8z" />
<glyph unicode="&#xe09a;" d="M408 382.4v60.8h-304v-60.8h-91.2v-60.8c0-50.368 40.83-91.2 91.2-91.2 9.536 0 18.73 1.466 27.369 4.181 21.933-31.354 55.389-54.053 94.231-61.938v-94.243h-30.4c-33.579 0-60.8-27.221-60.8-60.8h243.2c0 33.579-27.221 60.8-60.8 60.8h-30.4v94.243c38.841 7.885 72.298 30.584 94.231 61.938 8.64-2.715 17.834-4.181 27.37-4.181 50.37 0 91.2 40.832 91.2 91.2v60.8h-91.2zM104 266.5c-30.382 0-55.1 24.718-55.1 55.1v30.4h55.1v-30.4c0-19.089 3.529-37.35 9.953-54.183-3.231-0.592-6.554-0.918-9.953-0.918zM463.1 321.6c0-30.382-24.718-55.1-55.1-55.1-3.399 0-6.722 0.326-9.953 0.918 6.424 16.832 9.953 35.094 9.953 54.183v30.4h55.1v-30.4z" />
<glyph unicode="&#xe09b;" d="M304 294.4c-16-16-16-16-16-32v-224h64c17.673 0 32-14.327 32-32h-256c0 17.673 14.327 32 32 32h64v224c0 16 0 16-16 32l-137.373 137.373c-12.445 12.445-8.227 22.627 9.373 22.627h352c17.6 0 21.817-10.182 9.373-22.627l-137.368-137.368c-0.002-0.002-0.003-0.004-0.005-0.005z" />
<glyph unicode="&#xe09c;" d="M408 321.6h-30.4v45.6c0 41.974-81.663 76-182.4 76s-182.4-34.026-182.4-76v-273.6c0-41.974 81.663-76 182.4-76s182.4 34.026 182.4 76v45.6h30.4c50.16 0 91.2 41.040 91.2 91.2s-41.040 91.2-91.2 91.2zM96.427 383.539c27.523 9.067 62.6 14.061 98.773 14.061s71.252-4.993 98.774-14.061c17.572-5.789 28.219-11.992 33.92-16.339-5.701-4.347-16.348-10.549-33.92-16.339-27.522-9.067-62.6-14.061-98.774-14.061s-71.251 4.993-98.773 14.061c-17.572 5.791-28.219 11.992-33.92 16.339 5.701 4.347 16.347 10.549 33.92 16.339zM442.373 203.627c-4.194-4.193-13.248-11.227-26.773-11.227h-38v76h38c13.525 0 22.579-7.035 26.773-11.228s11.227-13.247 11.227-26.772-7.034-22.58-11.227-26.773z" />
<glyph unicode="&#xe09d;" d="M423.2 473.6c-41.976 0-76-34.025-76-76v-228h60.8v-182.4h91.2v410.4c0 41.975-34.026 76-76 76zM210.4 473.6c-8.396 0-15.2-6.806-15.2-15.2v-106.4c0-4.197-6.806-7.6-15.2-7.6-8.396 0-15.2 3.403-15.2 7.6v106.4c0 8.394-6.806 15.2-15.2 15.2-8.395 0-15.2-6.806-15.2-15.2v-106.4c0-4.197-6.806-7.6-15.2-7.6s-15.2 3.403-15.2 7.6v106.4c0 8.394-6.806 15.2-15.2 15.2s-15.2-6.806-15.2-15.2v-106.4c0-4.197-6.806-7.6-15.2-7.6s-15.2 3.403-15.2 7.6v106.4c0 8.394-6.806 15.2-15.2 15.2s-15.2-6.806-15.2-15.2v-136.8c0-13.451 11.902-20.952 25.177-30.4 16.724-11.906 35.623-26.902 35.623-60.8v-243.2h91.2v243.2c0 33.898 18.899 48.894 35.621 60.8 13.274 9.447 25.179 16.949 25.179 30.4v136.8c0 8.394-6.805 15.2-15.2 15.2z" />
<glyph unicode="&#xe09f;" d="M347.2 443.2l-152-152h-91.2l-91.2-121.6c0 0 96.623 26.909 152.982 14.29l-152.982-196.69 200.404 155.869c27.948-63.961-18.004-155.869-18.004-155.869l121.6 91.2v91.2l152 152 30.4 152-152-30.4z" />
<glyph unicode="&#xe0a0;" d="M256 458.4c134.315 0 243.2-108.884 243.2-243.2 0-91.576-50.623-171.317-125.404-212.8h-235.593c-74.78 41.483-125.404 121.224-125.404 212.8 0 134.315 108.885 243.2 243.2 243.2zM393.709 77.491c36.783 36.784 57.041 85.689 57.041 137.709h-42.75v30.4h40.393c-3.331 21.374-10.161 41.87-20.219 60.8h-50.575v30.4h30.535c-4.483 5.587-9.287 10.97-14.425 16.109-21.955 21.955-48.231 38.019-76.909 47.404v-33.113h-30.4v40.394c-9.966 1.553-20.121 2.356-30.4 2.356s-20.434-0.803-30.4-2.356v-40.394h-30.4v33.113c-28.677-9.386-54.953-25.449-76.909-47.404-5.138-5.138-9.942-10.521-14.425-16.109h30.535v-30.4h-50.576c-10.058-18.93-16.887-39.425-20.218-60.8h40.394v-30.4h-42.751c0-52.020 20.258-100.925 57.041-137.709 5.087-5.087 10.414-9.846 15.941-14.291h91.368l17.371 243.2h26.057l17.371-243.2h91.368c5.527 4.445 10.854 9.205 15.941 14.291z" />
<glyph unicode="&#xe0a3;" d="M492.632 38.618l-260.601 237.243 12.129 12.159c9.924 9.953 15.29 22.814 16.111 35.915 0.476 0.214 0.951 0.433 1.405 0.685l48.921 30.591c6.618 7.786 6.135 20.077-1.085 27.313l-85.082 85.314c-7.215 7.236-19.474 7.724-27.238 1.085l-30.512-49.053c-0.25-0.459-0.47-0.934-0.684-1.412-13.064-0.825-25.887-6.202-35.814-16.153l-46.279-46.409c-9.927-9.954-15.287-22.813-16.111-35.912-0.477-0.214-0.952-0.435-1.408-0.687l-48.919-30.593c-6.622-7.785-6.135-20.076 1.081-27.311l85.082-85.312c7.217-7.238 19.473-7.724 27.242-1.086l30.508 49.053c0.251 0.455 0.47 0.931 0.685 1.409 13.064 0.825 25.889 6.199 35.814 16.152l13.439 13.476 236.608-261.304c6.857-7.574 17.433-8.796 23.5-2.713l23.919 23.982c6.063 6.084 4.843 16.688-2.711 23.567z" />
<glyph unicode="&#xe0a4;" d="M165.279-12.8c-32.417 67.454-15.154 106.104 9.762 142.521 27.284 39.879 34.316 79.356 34.316 79.356s21.448-27.882 12.869-71.491c37.892 42.18 45.041 109.383 39.322 135.12 85.649-59.856 122.254-189.457 72.923-285.507 262.376 148.452 65.264 370.582 30.948 395.603 11.439-25.021 13.608-67.379-9.5-87.935-39.117 148.331-135.837 178.731-135.837 178.731 11.439-76.496-41.465-160.143-92.481-222.646-1.793 30.503-3.697 51.551-19.736 80.74-3.6-55.411-45.947-100.58-57.415-156.099-15.533-75.186 11.636-130.236 114.831-188.396z" />
<glyph unicode="&#xe0a5;" d="M467.038 91.471l-150.238 250.337v101.393h15.2c8.36 0 15.2 6.84 15.2 15.2s-6.84 15.2-15.2 15.2h-152c-8.36 0-15.2-6.84-15.2-15.2s6.84-15.2 15.2-15.2h15.2v-101.393l-150.237-250.337c-34.41-57.349-7.843-104.271 59.037-104.271h304c66.88 0 93.447 46.923 59.038 104.271zM127.293 169.6l98.307 163.846v109.755h60.8v-109.755l98.308-163.846h-257.415z" />
<glyph unicode="&#xe0a6;" d="M421.063 460.993l-2.182 12.608h-117.281l3.136-17.833c10.615-60.373 35.303-207.354 35.303-268.118 0-46.621-37.7-84.55-84.039-84.55s-84.038 37.929-84.038 84.55c0 60.765 24.689 207.746 35.304 268.118l3.134 17.833h-117.281l-2.182-12.608c-12.861-74.3-34.437-208.613-34.437-273.342 0-110.529 89.496-200.45 199.5-200.45s199.5 89.921 199.5 200.45c0 64.727-21.575 199.040-34.437 273.342zM256 17.6c-93.242 0-169.1 76.284-169.1 170.050 0 38.367 8.037 103.111 17.179 164.35h55.264c-9.497-62.336-17.781-127.326-17.781-164.35 0-63.384 51.337-114.95 114.438-114.95s114.439 51.566 114.439 114.95c0 37.023-8.285 102.013-17.782 164.35h55.264c9.142-61.24 17.179-125.985 17.179-164.35 0-93.766-75.858-170.050-169.1-170.050z" />
<glyph unicode="&#xe0a7;" d="M104-12.8h304l30.4 334.4h-364.8zM316.8 412.8v60.8h-121.6v-60.8h-152v-91.2l30.4 30.4h364.8l30.4-30.4v91.2h-152zM286.4 412.8h-60.8v30.4h60.8v-30.4z" />
<glyph unicode="&#xe0a9;" d="M468.8 352h-121.6v30.4c0 16.72-13.68 30.4-30.4 30.4h-121.6c-16.722 0-30.4-13.68-30.4-30.4v-30.4h-121.6c-16.72 0-30.4-13.68-30.4-30.4v-273.6c0-16.721 13.678-30.4 30.4-30.4h425.6c16.72 0 30.4 13.679 30.4 30.4v273.6c0 16.72-13.68 30.4-30.4 30.4zM195.2 382.345c0.016 0.019 0.035 0.039 0.054 0.055h121.492c0.020-0.016 0.039-0.036 0.056-0.055v-30.345h-121.602v30.345zM468.8 230.4h-60.8v-45.6c0-8.361-6.84-15.2-15.2-15.2h-30.4c-8.362 0-15.2 6.839-15.2 15.2v45.6h-182.4v-45.6c0-8.361-6.84-15.2-15.2-15.2h-30.4c-8.361 0-15.2 6.839-15.2 15.2v45.6h-60.8v30.4h425.6v-30.4z" />
<glyph unicode="&#xe0aa;" d="M377.6 169.615l-86.839 86.841 208.44 156.346-60.805 60.798-260.547-104.235-82.032 82.035c-23.645 23.644-56.669 29.311-73.388 12.591s-11.053-49.745 12.592-73.387l82.026-82.025-104.246-260.577 60.795-60.803 156.365 208.462 86.843-86.844v-121.591h60.797l30.396 91.195 91.195 30.398v60.796l-121.591-0.002z" />
<glyph unicode="&#xe0ab;" d="M499.2 200l-60.8 121.6h-91.2v60.8c0 16.72-13.68 30.4-30.4 30.4h-273.6c-16.72 0-30.4-13.68-30.4-30.4v-243.2l30.4-30.4h38.554c-5.177-8.945-8.154-19.322-8.154-30.4 0-33.579 27.221-60.8 60.8-60.8s60.8 27.221 60.8 60.8c0 11.078-2.977 21.455-8.154 30.4h168.309c-5.176-8.945-8.155-19.322-8.155-30.4 0-33.579 27.221-60.8 60.8-60.8s60.8 27.221 60.8 60.8c0 11.078-2.978 21.455-8.155 30.4h38.555v91.2zM347.2 200v76h63.017l38-76h-101.017z" />
<glyph unicode="&#xe0ac;" d="M347.2-12.8h152l-121.6 486.4h-91.2l15.2-121.6h-91.2l15.2 121.6h-91.2l-121.6-486.4h152l15.2 121.6h152l15.2-121.6zM187.6 169.6l15.2 121.6h106.4l15.2-121.6h-136.8z" />
<glyph unicode="&#xe0ad;" d="M468.8 382.4v30.4l-212.8-60.8-212.8 60.8v-30.4l152-60.8v-121.6l-60.8-212.8h30.4l91.2 212.8 91.2-212.8h30.4l-60.8 212.8v121.6zM210.4 428c0 25.184 20.416 45.6 45.6 45.6s45.6-20.416 45.6-45.6c0-25.184-20.416-45.6-45.6-45.6s-45.6 20.416-45.6 45.6z" />
<glyph unicode="&#xe0ae;" d="M499.2 260.8h-47.939c-13.129 84.664-80.197 151.732-164.861 164.861v47.939h-60.8v-47.939c-84.664-13.129-151.732-80.197-164.861-164.861h-47.939v-60.8h47.939c13.129-84.664 80.197-151.732 164.861-164.861v-47.939h60.8v47.939c84.664 13.129 151.732 80.197 164.861 164.861h47.939v60.8zM389.39 260.8h-47.387c-9.16 25.911-29.692 46.445-55.603 55.603v47.387c51.069-11.632 91.358-51.922 102.99-102.99zM256 200c-16.79 0-30.4 13.611-30.4 30.4s13.611 30.4 30.4 30.4c16.789 0 30.4-13.611 30.4-30.4s-13.611-30.4-30.4-30.4zM225.6 363.791v-47.387c-25.911-9.159-46.445-29.692-55.603-55.603h-47.387c11.632 51.068 51.922 91.358 102.99 102.99zM122.609 200h47.387c9.159-25.911 29.692-46.445 55.603-55.603v-47.387c-51.068 11.632-91.357 51.921-102.99 102.99zM286.4 97.010v47.387c25.911 9.16 46.445 29.692 55.603 55.603h47.387c-11.632-51.069-51.921-91.358-102.99-102.99z" />
<glyph unicode="&#xe0af;" d="M468.8 473.6l-212.8-60.8-212.8 60.8c0 0-2.138-24.557 0-60.8l212.8-66.543 212.8 66.543c2.137 36.243 0 60.8 0 60.8zM47.090 380.924c11.394-119.080 53.908-319.311 208.91-393.724 155.002 74.413 197.517 274.644 208.909 393.724l-208.91-78.545-208.91 78.545z" />
<glyph unicode="&#xe0b1;" d="M316.8 403.971v-64.58c17.198-7.507 33.012-18.244 46.68-31.91 28.71-28.709 44.52-66.88 44.52-107.48s-15.811-78.771-44.52-107.48c-28.709-28.709-66.879-44.52-107.48-44.52s-78.771 15.811-107.48 44.52c-28.709 28.709-44.52 66.88-44.52 107.48s15.811 78.771 44.52 107.48c13.667 13.667 29.483 24.404 46.68 31.911v64.579c-87.898-26.163-152-107.574-152-203.971 0-117.526 95.274-212.8 212.8-212.8s212.8 95.274 212.8 212.8c0 96.397-64.101 177.808-152 203.971zM225.6 473.6h60.8v-243.2h-60.8z" />
<glyph unicode="&#xe0b2;" d="M499.2 339.413l-42.99 42.987-84.904-84.907-48.212 48.214 84.906 84.906-42.988 42.988-84.906-84.907-54.505 54.506-41.148-41.147 243.201-243.201 41.147 41.147-54.507 54.507zM143.305 117.704c78.74-78.737 182.967-17.272 246.663 35.846l-210.816 210.817c-53.117-63.695-114.584-167.923-35.847-246.662zM103.999 139.198l60.797-60.798-91.196-91.196-60.798 60.797z" />
<glyph unicode="&#xe0b5;" d="M195.2 443.2h304v-60.8h-304v60.8zM195.2 260.8h304v-60.8h-304v60.8zM195.2 78.4h304v-60.8h-304v60.8zM12.8 412.8c0 33.579 27.222 60.8 60.8 60.8s60.8-27.221 60.8-60.8c0-33.579-27.221-60.8-60.8-60.8s-60.8 27.221-60.8 60.8zM12.8 230.4c0 33.578 27.222 60.8 60.8 60.8s60.8-27.221 60.8-60.8c0-33.579-27.221-60.8-60.8-60.8s-60.8 27.221-60.8 60.8zM12.8 48c0 33.579 27.222 60.8 60.8 60.8s60.8-27.221 60.8-60.8c0-33.579-27.221-60.8-60.8-60.8s-60.8 27.221-60.8 60.8z" />
<glyph unicode="&#xe0b6;" d="M195.2 78.4h304v-60.8h-304zM195.2 260.8h304v-60.8h-304zM195.2 443.2h304v-60.8h-304zM104 473.6v-121.6h-30.4v91.2h-30.4v30.4zM73.6 223.75v-23.75h60.8v-30.4h-91.2v69.35l60.8 28.5v23.75h-60.8v30.4h91.2v-69.35zM134.4 139.2v-152h-91.2v30.4h60.8v30.4h-60.8v30.4h60.8v30.4h-60.8v30.4z" />
<glyph unicode="&#xe0ba;" d="M499.2 161.267c0 38.993-26.922 71.678-63.173 80.503-1.54 61.133-51.517 110.23-112.984 110.23-36.001 0-68.052-16.86-88.755-43.097-11.61 15.009-29.778 24.681-50.212 24.681-35.060 0-63.48-28.44-63.48-63.518 0-3.057 0.228-6.061 0.648-9.003-5.331 0.962-10.814 1.49-16.421 1.49-50.824 0.001-92.022-41.224-92.022-92.075 0-50.854 41.199-92.078 92.022-92.078l311.724 0.005c45.666 0.087 82.654 37.151 82.654 82.862z" />
<glyph unicode="&#xe0bb;" d="M436.027 302.572c-1.54 61.131-51.517 110.228-112.984 110.228-36.001 0-68.052-16.859-88.755-43.098-11.61 15.009-29.778 24.681-50.212 24.681-35.060 0-63.48-28.44-63.48-63.518 0-3.057 0.228-6.061 0.648-9.003-5.331 0.962-10.814 1.49-16.421 1.49-50.824 0.001-92.022-41.224-92.022-92.075 0-50.855 41.199-92.078 92.022-92.078h47.386l103.792-103.793 103.792 103.793 56.754 0.005c45.666 0.087 82.654 37.151 82.654 82.862 0 38.993-26.922 71.678-63.173 80.504zM256 78.4l-91.2 91.2h60.8v91.2h60.8v-91.2h60.8l-91.2-91.2z" />
<glyph unicode="&#xe0bc;" d="M436.627 290.017c1.161 5.277 1.772 10.758 1.772 16.383 0 41.974-34.026 76-76 76-6.755 0-13.307-0.887-19.538-2.542-11.779 36.742-46.212 63.342-86.863 63.342-41.49 0-76.5-27.709-87.555-65.63-10.803 3.146-22.226 4.83-34.045 4.83-67.157 0-121.6-54.442-121.6-121.6 0-67.16 54.442-121.6 121.6-121.6h60.8v-91.2h121.6v91.2h106.4c41.974 0 76 34.025 76 76 0 37.392-27.005 68.477-62.572 74.817zM286.4 169.6v-91.2h-60.8v91.2h-76l106.4 106.4 106.4-106.4h-76z" />
<glyph unicode="&#xe0bd;" d="M438.4 230.4h-76l-106.4-106.4-106.4 106.4h-76l-60.8-121.6v-30.4h486.4v30.4l-60.8 121.6zM12.8 48h486.4v-30.4h-486.4v30.4zM286.4 321.6v121.6h-60.8v-121.6h-106.4l136.8-136.8 136.8 136.8h-106.4z" />
<glyph unicode="&#xe0be;" d="M12.8 48h486.4v-30.4h-486.4zM499.2 108.8v-30.4h-486.4v30.4l60.8 121.6h121.6v-60.8h121.6v60.8h121.6zM119.2 321.6l136.8 136.8 136.8-136.8h-106.4v-121.6h-60.8v121.6z" />
<glyph unicode="&#xe0c1;" d="M256 473.6c-134.315 0-243.2-108.885-243.2-243.2s108.885-243.2 243.2-243.2c134.316 0 243.2 108.884 243.2 243.2s-108.884 243.2-243.2 243.2zM393.606 149.333c4.346 20.496 7.091 42.252 7.984 64.853h64.572c-1.69-22.392-6.902-44.138-15.545-64.853h-57.012zM118.394 311.467c-4.347-20.496-7.091-42.251-7.984-64.853h-64.572c1.691 22.391 6.902 44.138 15.544 64.853h57.012zM360.392 311.467c4.87-20.753 7.802-42.486 8.755-64.853h-96.933v64.853h88.178zM272.213 343.893v94.918c7.392-2.151 14.716-5.761 21.902-10.828 13.468-9.495 26.353-24.121 37.26-42.3 7.54-12.566 14.060-26.558 19.505-41.792h-78.667zM180.624 385.685c10.907 18.178 23.791 32.805 37.26 42.3 7.186 5.067 14.511 8.677 21.903 10.827v-94.919h-78.667c5.445 15.233 11.965 29.224 19.505 41.792zM239.787 311.467v-64.853h-96.933c0.952 22.368 3.885 44.1 8.755 64.853h88.178zM61.383 149.333c-8.642 20.716-13.853 42.461-15.544 64.853h64.571c0.892-22.601 3.637-44.357 7.984-64.853h-57.012zM142.854 214.187h96.933v-64.853h-88.178c-4.87 20.753-7.802 42.486-8.755 64.853zM239.787 116.907v-94.919c-7.392 2.151-14.715 5.762-21.903 10.828-13.469 9.495-26.353 24.122-37.26 42.3-7.54 12.568-14.060 26.558-19.506 41.792h78.668zM331.376 75.115c-10.908-18.177-23.792-32.805-37.26-42.3-7.187-5.065-14.51-8.677-21.902-10.828v94.919h78.668c-5.445-15.233-11.966-29.225-19.505-41.792zM272.213 149.333v64.853h96.933c-0.952-22.368-3.885-44.101-8.755-64.853h-88.176zM401.59 246.613c-0.892 22.602-3.637 44.357-7.984 64.853h57.012c8.642-20.716 13.855-42.462 15.545-64.853h-64.572zM433.666 343.893h-48.589c-9.443 29.773-22.483 55.882-38.16 76.724 21.551-10.305 41.070-24.125 58.121-41.178 10.883-10.882 20.45-22.768 28.628-35.545zM106.961 379.439c17.053 17.053 36.571 30.872 58.121 41.178-15.678-20.841-28.715-46.952-38.16-76.724h-48.588c8.177 12.777 17.744 24.664 28.627 35.545zM78.335 116.907h48.587c9.445-29.773 22.483-55.882 38.161-76.725-21.552 10.305-41.070 24.125-58.121 41.178-10.883 10.882-20.451 22.769-28.628 35.546zM405.039 81.361c-17.052-17.053-36.571-30.873-58.121-41.178 15.678 20.841 28.717 46.952 38.16 76.724h48.589c-8.178-12.777-17.744-24.664-28.628-35.546z" />
<glyph unicode="&#xe0c2;" d="M427.969 402.368c45.933-45.935 71.231-107.008 71.231-171.969s-25.298-126.034-71.231-171.968c-45.935-45.933-107.008-71.231-171.969-71.231s-126.034 25.298-171.969 71.231c-45.934 45.935-71.231 107.007-71.231 171.968s25.296 126.034 71.231 171.969c45.935 45.934 107.008 71.232 171.969 71.232s126.034-25.298 171.969-71.232zM406.473 79.926c29.952 29.954 49.868 67.264 58.079 107.854-6.4-9.422-12.522-12.917-16.313 8.173-3.904 34.385-35.486 12.421-55.345 24.634-20.902-14.087-67.88 27.39-59.897-19.392 12.319-21.101 66.504 28.239 39.495-16.407-17.23-31.168-63.005-100.192-57.050-135.972 0.752-52.129-53.264-10.87-71.874 6.422-12.519 34.637-4.267 95.178-37.001 112.141-35.531 1.543-66.027 4.772-79.797 44.493-8.287 28.419 8.818 70.725 39.272 77.256 44.579 28.009 60.502-32.8 102.31-33.931 12.981 13.582 48.363 17.901 51.296 33.131-27.431 4.841 34.803 23.065-2.626 33.432-20.649-2.428-33.952-21.41-22.975-37.505-40.013-9.33-41.294 57.904-79.757 36.697-0.977-33.53-62.805-10.871-21.392-4.072 14.229 6.217-23.209 24.232-2.983 20.959 9.935 0.54 43.382 12.261 34.331 20.141 18.625 11.561 34.276-27.688 52.505 0.894 13.161 21.976-5.519 26.034-22.017 14.894-9.3 10.414 16.421 32.906 39.108 42.625 7.561 3.24 14.783 5.005 20.305 4.505 11.428-13.201 32.561-15.488 33.667 1.588-28.301 13.553-59.506 20.714-91.814 20.714-46.37 0-90.474-14.736-126.972-41.985 9.809-4.493 15.376-10.088 5.927-17.24-7.341-21.876-37.131-51.241-63.281-47.084-13.578-23.416-22.52-49.213-26.343-76.251 21.903-7.247 26.953-21.589 22.247-26.386-11.16-9.732-18.020-23.526-21.553-38.628 7.13-43.622 27.632-83.826 59.503-115.699 40.192-40.192 93.631-62.327 150.472-62.327s110.28 22.135 150.473 62.327z" />
<glyph unicode="&#xe0c4;" d="M392.8 391.755c36.322 0 68.918 19.77 91.2 34.726v-282.953c-22.281-14.956-54.879-34.727-91.2-34.727s-68.918 10.768-91.2 25.724c-22.281 14.953-54.879 25.721-91.2 25.721s-68.918-18.485-91.2-33.438v282.953c22.282 14.955 54.878 33.44 91.2 33.44s68.918-10.767 91.2-25.722c22.281-14.955 54.879-25.723 91.2-25.723zM58.4 473.6c16.789 0 30.4-13.611 30.4-30.4v-456h-60.8v456c0 16.79 13.611 30.4 30.4 30.4z" />
<glyph unicode="&#xe0c5;" d="M344.27 318.252l-30.852 30.838-154.285-154.253c-25.561-25.551-25.561-66.998 0-92.551 25.557-25.551 67.004-25.551 92.565 0l185.142 185.112c42.614 42.59 42.614 111.654 0 154.245-42.591 42.609-111.678 42.609-154.272 0l-194.385-194.359c-0.138-0.144-0.29-0.274-0.416-0.402-59.423-59.421-59.423-155.732 0-215.131 59.4-59.402 155.738-59.402 215.169 0 0.13 0.13 0.245 0.27 0.389 0.416l0.015-0.016 132.683 132.663-30.868 30.837-132.682-132.649c-0.14-0.127-0.268-0.271-0.402-0.401-42.31-42.303-111.141-42.303-153.461 0-42.304 42.295-42.304 111.113 0 153.415 0.144 0.144 0.287 0.276 0.422 0.402l-0.022 0.029 194.408 194.354c25.513 25.526 67.043 25.526 92.571 0 25.513-25.524 25.513-67.046 0-92.549l-185.142-185.107c-8.519-8.513-22.351-8.513-30.862 0-8.5 8.496-8.5 22.34 0 30.837l154.283 154.272z" />
<glyph unicode="&#xe0c6;" d="M256 382.4c-106.076 0-198.019-61.77-243.2-152 45.181-90.23 137.124-152 243.2-152 106.074 0 198.017 61.77 243.2 152-45.18 90.23-137.126 152-243.2 152zM375.914 301.791c28.577-18.228 52.793-42.642 70.981-71.391-18.188-28.748-42.405-53.163-70.982-71.392-35.907-22.902-77.373-35.008-119.913-35.008s-84.007 12.106-119.913 35.010c-28.576 18.226-52.791 42.642-70.981 71.391 18.189 28.749 42.405 53.164 70.981 71.391 1.861 1.188 3.741 2.338 5.632 3.467-4.73-12.981-7.319-26.99-7.319-41.608 0-67.158 54.442-121.6 121.6-121.6s121.6 54.442 121.6 121.6c0 14.618-2.589 28.627-7.319 41.609 1.89-1.13 3.771-2.281 5.632-3.468zM256 278.85c0-25.185-20.416-45.6-45.6-45.6s-45.6 20.416-45.6 45.6 20.416 45.6 45.6 45.6 45.6-20.416 45.6-45.6z" />
<glyph unicode="&#xe0c7;" d="M411.478 332.803c36.881-26.139 67.151-61.318 87.722-102.403-45.183-90.23-137.126-152-243.2-152-29.719 0-58.326 4.851-85.109 13.815l37.029 37.029c15.703-3.467 31.811-5.244 48.081-5.244 42.54 0 84.005 12.106 119.912 35.010 28.577 18.228 52.793 42.644 70.982 71.392-17.599 27.819-40.856 51.561-68.233 69.584l32.818 32.817zM256 142.050c-10.794 0-21.257 1.413-31.221 4.053l148.764 148.763c2.642-9.962 4.058-20.422 4.058-31.216 0-67.158-54.442-121.6-121.6-121.6zM468.8 473.6h-25.526l-104.315-104.316c-26.161 8.514-54.033 13.115-82.959 13.115-106.076 0-198.019-61.77-243.2-152 20.263-40.466 49.936-75.197 86.067-101.208l-86.067-86.067v-25.526h25.526l430.474 430.474v25.526zM210.4 324.45c22.821 0 41.727-16.764 45.073-38.651l-52.024-52.024c-21.885 3.348-38.65 22.254-38.65 45.075 0 25.184 20.416 45.6 45.6 45.6zM65.105 230.4c18.189 28.749 42.405 53.164 70.981 71.391 1.861 1.188 3.741 2.338 5.632 3.468-4.73-12.981-7.319-26.99-7.319-41.608 0-27.799 9.333-53.413 25.031-73.892l-27.811-27.811c-26.634 17.88-49.283 41.216-66.515 68.453z" />
<glyph unicode="&#xe0c9;" d="M104 473.6v-486.4l152 152 152-152v486.4z" />
<glyph unicode="&#xe0ca;" d="M134.4 412.8v-425.6l152 152 152-152v425.6zM377.6 473.6h-304v-425.6l30.4 30.4v364.8h273.6z" />
<glyph unicode="&#xe0cb;" d="M256 275.4c-24.813 0-45-20.187-45-45s20.187-45 45-45c24.813 0 45 20.187 45 45s-20.187 45-45 45zM256 326.4v0c53.020 0 96-42.98 96-96s-42.98-96-96-96c-53.020 0-96 42.98-96 96s42.98 96 96 96zM438.627 93.027c12.498-12.497 12.497-32.758 0-45.254-12.497-12.498-32.757-12.498-45.254 0l-32 32c-12.498 12.497-12.498 32.757 0 45.254 12.496 12.497 32.757 12.498 45.254 0l32-32zM150.627 381.027c12.498-12.497 12.497-32.758 0-45.254-12.497-12.498-32.757-12.498-45.254 0l-32 32c-12.498 12.497-12.498 32.757 0 45.254 12.496 12.497 32.757 12.498 45.254 0l32-32zM393.372 413.027c12.497 12.498 32.758 12.497 45.254 0 12.498-12.497 12.498-32.757 0.001-45.254l-32-32c-12.498-12.498-32.758-12.498-45.254 0-12.498 12.496-12.498 32.757 0 45.254l31.999 32zM105.373 125.027c12.497 12.498 32.757 12.497 45.254 0s12.498-32.757 0-45.254l-32-32c-12.497-12.498-32.757-12.498-45.254 0-12.497 12.496-12.498 32.757 0 45.254l32 32zM256 454.4c17.673 0 32-14.327 32-32v-32c0-17.673-14.327-32-32-32s-32 14.327-32 32v32c0 17.673 14.327 32 32 32zM256 102.4c17.673 0 32-14.326 32-32v-32c0-17.674-14.327-32-32-32s-32 14.326-32 32v32c0 17.674 14.327 32 32 32zM32 230.4c0 17.673 14.327 32 32 32h32c17.673 0 32-14.327 32-32 0-17.674-14.327-32-32-32h-32c-17.673 0-32 14.326-32 32zM384 230.4c0 17.673 14.326 32 32 32h32c17.674 0 32-14.327 32-32s-14.326-32-32-32h-32c-17.674 0-32 14.327-32 32z" />
<glyph unicode="&#xe0cc;" d="M256 352c-67.157 0-121.6-54.442-121.6-121.6s54.442-121.6 121.6-121.6 121.6 54.442 121.6 121.6-54.442 121.6-121.6 121.6zM256 154.4v152c41.906 0 76-34.093 76-76s-34.094-76-76-76zM256 78.4c16.789 0 30.4-13.611 30.4-30.4v-30.4c0-16.789-13.611-30.4-30.4-30.4s-30.4 13.611-30.4 30.4v30.4c0 16.789 13.611 30.4 30.4 30.4zM256 382.4c-16.79 0-30.4 13.611-30.4 30.4v30.4c0 16.79 13.611 30.4 30.4 30.4s30.4-13.611 30.4-30.4v-30.4c0-16.79-13.611-30.4-30.4-30.4zM468.8 260.8c16.789 0 30.4-13.611 30.4-30.4s-13.611-30.4-30.4-30.4h-30.4c-16.789 0-30.4 13.611-30.4 30.4s13.611 30.4 30.4 30.4h30.4zM104 230.4c0-16.79-13.611-30.4-30.4-30.4h-30.4c-16.79 0-30.4 13.611-30.4 30.4s13.611 30.4 30.4 30.4h30.4c16.79 0 30.4-13.611 30.4-30.4zM406.473 122.92l21.497-21.497c11.871-11.871 11.871-31.12 0-42.992-11.872-11.871-31.121-11.871-42.992 0l-21.497 21.497c-11.871 11.871-11.871 31.12 0 42.993 11.872 11.871 31.121 11.871 42.993 0zM105.528 337.88l-21.496 21.496c-11.872 11.872-11.872 31.12 0 42.993s31.12 11.872 42.992 0l21.496-21.497c11.872-11.872 11.872-31.12 0-42.993s-31.12-11.872-42.993 0zM406.473 337.88c-11.871-11.871-31.12-11.871-42.993 0-11.871 11.872-11.871 31.12 0 42.993l21.497 21.495c11.871 11.872 31.12 11.872 42.992 0 11.871-11.872 11.871-31.12 0-42.993l-21.497-21.495zM105.528 122.92c11.871 11.871 31.12 11.871 42.992 0 11.872-11.872 11.872-31.121 0-42.993l-21.495-21.497c-11.872-11.871-31.12-11.871-42.993 0-11.872 11.872-11.872 31.121 0 42.992l21.496 21.497z" />
<glyph unicode="&#xe0cd;" d="M256 473.6c-134.315 0-243.2-108.885-243.2-243.2s108.885-243.2 243.2-243.2 243.2 108.885 243.2 243.2-108.885 243.2-243.2 243.2zM73.6 230.4c0 100.737 81.663 182.4 182.4 182.4v-364.8c-100.737 0-182.4 81.663-182.4 182.4z" />
<glyph unicode="&#xe0ce;" d="M499.2 285.001l-168.046 24.419-75.154 152.276-75.153-152.276-168.048-24.419 121.6-118.531-28.705-167.367 150.305 79.020 150.305-79.020-28.706 167.367 121.601 118.531zM256 115.688l-106.144-55.803 20.271 118.194-85.874 83.706 118.674 17.244 53.072 107.538 53.075-107.538 118.672-17.244-85.875-83.706 20.272-118.194-106.144 55.803z" />
<glyph unicode="&#xe0cf;" d="M499.2 285.001l-168.046 24.419-75.154 152.276-75.153-152.276-168.048-24.419 121.6-118.531-28.705-167.367 150.305 79.020 150.305-79.020-28.706 167.367 121.601 118.531zM256 115.688l-0.447-0.236 0.447 271.115 53.075-107.538 118.672-17.244-85.875-83.706 20.272-118.195-106.144 55.803z" />
<glyph unicode="&#xe0d0;" d="M499.2 285.001l-168.046 24.419-75.154 152.276-75.153-152.276-168.048-24.419 121.6-118.531-28.705-167.367 150.305 79.020 150.305-79.020-28.706 167.367 121.601 118.531z" />
<glyph unicode="&#xe0d1;" d="M499.2 303.476c0-41.022-17.678-77.914-45.832-103.476h0.233l-152-152c-15.2-15.2-30.4-30.4-45.6-30.4s-30.4 15.2-45.6 30.4l-152 152h0.233c-28.154 25.562-45.833 62.454-45.833 103.476 0 77.168 62.557 139.724 139.724 139.724 41.022 0 77.915-17.678 103.476-45.833 25.562 28.154 62.454 45.833 103.476 45.833 77.166 0 139.724-62.556 139.724-139.724z" />
<glyph unicode="&#xe0d2;" d="M499.2 303.476c0 77.168-62.558 139.724-139.724 139.724-41.022 0-77.914-17.678-103.476-45.833-25.561 28.154-62.454 45.833-103.476 45.833-77.168 0-139.724-62.556-139.724-139.724 0-41.022 17.678-77.914 45.833-103.476h-0.233l152-152c15.2-15.2 30.4-30.4 45.6-30.4s30.4 15.2 45.6 30.4l152 152h-0.233c28.154 25.562 45.832 62.454 45.832 103.476zM412.498 245.015l-153.889-154.023c-0.797-0.797-1.678-1.678-2.608-2.603-0.931 0.926-1.811 1.806-2.608 2.603l-153.889 154.022c-16.704 15.166-25.903 35.928-25.903 58.462 0 43.519 35.406 78.924 78.924 78.924 22.534 0 43.297-9.199 58.461-25.903l45.015-49.58 45.015 49.579c15.166 16.705 35.927 25.904 58.461 25.904 43.519 0 78.924-35.405 78.924-78.924 0-22.534-9.2-43.296-25.902-58.461z" />
<glyph unicode="&#xe0d4;" d="M453.6 200c34.675 0 15.2-91.2-15.2-91.2 15.2 0 0-76-30.4-76 0-30.4-30.4-45.6-60.8-45.6-128.417 0-83.25 32.134-212.8 45.6v243.2c114.438 34.327 228 120.377 228 197.6 25.175 0 91.2-30.4 0-182.4 0 0 76 0 91.2 0 45.6 0 30.4-91.2 0-91.2zM104 276v-243.2h30.4v-15.2h-60.8c-16.72 0-30.4 20.52-30.4 45.6v182.4c0 25.080 13.68 45.6 30.4 45.6h60.8v-15.2h-30.4z" />
<glyph unicode="&#xe0d5;" d="M58.4 260.8c-34.675 0-15.2 91.2 15.2 91.2-15.2 0 0 76 30.4 76 0 30.4 30.4 45.6 60.8 45.6 128.417 0 83.25-32.134 212.8-45.6v-243.2c-114.438-34.327-228-120.377-228-197.6-25.175 0-91.2 30.4 0 182.4 0 0-76 0-91.2 0-45.6 0-30.4 91.2 0 91.2zM408 184.8v243.2h-30.4v15.2h60.8c16.72 0 30.4-20.52 30.4-45.6v-182.4c0-25.080-13.68-45.6-30.4-45.6h-60.8v15.2h30.4z" />
<glyph unicode="&#xe0d6;" d="M256-12.8c134.315 0 243.2 108.885 243.2 243.2s-108.885 243.2-243.2 243.2-243.2-108.884-243.2-243.2 108.885-243.2 243.2-243.2zM256 428c109.132 0 197.6-88.469 197.6-197.6s-88.469-197.6-197.6-197.6-197.6 88.469-197.6 197.6 88.469 197.6 197.6 197.6zM256 189.189c55.077 0 107.459 14.633 152 40.337-6.923-84.758-72.736-151.126-152-151.126-79.262 0-145.076 66.439-152 151.195 44.541-25.703 96.924-40.406 152-40.406zM134.4 306.4c0 25.184 13.611 45.6 30.4 45.6s30.4-20.416 30.4-45.6c0-25.184-13.611-45.6-30.4-45.6s-30.4 20.416-30.4 45.6zM316.8 306.4c0 25.184 13.611 45.6 30.4 45.6s30.4-20.416 30.4-45.6c0-25.184-13.611-45.6-30.4-45.6s-30.4 20.416-30.4 45.6z" />
<glyph unicode="&#xe0d7;" d="M256 473.6c-134.315 0-243.2-108.885-243.2-243.2s108.885-243.2 243.2-243.2 243.2 108.885 243.2 243.2-108.885 243.2-243.2 243.2zM347.2 352c16.791 0 30.4-20.416 30.4-45.6s-13.61-45.6-30.4-45.6-30.4 20.416-30.4 45.6 13.61 45.6 30.4 45.6zM164.8 352c16.79 0 30.4-20.416 30.4-45.6s-13.611-45.6-30.4-45.6-30.4 20.416-30.4 45.6 13.611 45.6 30.4 45.6zM256 48c-79.262 0-145.076 66.439-152 151.195 44.541-25.704 96.924-40.406 152-40.406s107.459 14.633 152 40.337c-6.923-84.758-72.736-151.126-152-151.126z" />
<glyph unicode="&#xe0d8;" d="M256-12.8c134.315 0 243.2 108.885 243.2 243.2s-108.885 243.2-243.2 243.2-243.2-108.884-243.2-243.2 108.885-243.2 243.2-243.2zM256 428c109.132 0 197.6-88.469 197.6-197.6s-88.469-197.6-197.6-197.6-197.6 88.469-197.6 197.6 88.469 197.6 197.6 197.6zM134.4 321.6c0 16.789 13.611 30.4 30.4 30.4s30.4-13.611 30.4-30.4c0-16.79-13.611-30.4-30.4-30.4s-30.4 13.611-30.4 30.4zM316.8 321.6c0 16.789 13.611 30.4 30.4 30.4s30.4-13.611 30.4-30.4c0-16.79-13.611-30.4-30.4-30.4s-30.4 13.611-30.4 30.4zM347.247 175.651l39.106-23.463c-26.582-44.208-75.010-73.788-130.353-73.788s-103.77 29.58-130.352 73.788l39.106 23.463c18.607-30.945 52.507-51.651 91.246-51.651s72.639 20.706 91.246 51.651z" />
<glyph unicode="&#xe0d9;" d="M256 473.6c-134.315 0-243.2-108.885-243.2-243.2s108.885-243.2 243.2-243.2 243.2 108.885 243.2 243.2-108.885 243.2-243.2 243.2zM347.2 352c16.789 0 30.4-13.611 30.4-30.4s-13.611-30.4-30.4-30.4-30.4 13.611-30.4 30.4 13.611 30.4 30.4 30.4zM164.8 352c16.79 0 30.4-13.611 30.4-30.4s-13.611-30.4-30.4-30.4-30.4 13.611-30.4 30.4 13.611 30.4 30.4 30.4zM256 78.4c-55.342 0-103.77 29.58-130.352 73.788l39.106 23.463c18.607-30.945 52.507-51.651 91.246-51.651s72.639 20.706 91.246 51.651l39.106-23.463c-26.582-44.208-75.010-73.788-130.352-73.788z" />
<glyph unicode="&#xe0da;" d="M256-12.8c134.315 0 243.2 108.885 243.2 243.2s-108.885 243.2-243.2 243.2-243.2-108.884-243.2-243.2 108.885-243.2 243.2-243.2zM256 428c109.132 0 197.6-88.469 197.6-197.6s-88.469-197.6-197.6-197.6-197.6 88.469-197.6 197.6 88.469 197.6 197.6 197.6zM134.4 321.6c0 16.789 13.611 30.4 30.4 30.4s30.4-13.611 30.4-30.4c0-16.79-13.611-30.4-30.4-30.4s-30.4 13.611-30.4 30.4zM316.8 321.6c0 16.789 13.611 30.4 30.4 30.4s30.4-13.611 30.4-30.4c0-16.79-13.611-30.4-30.4-30.4s-30.4 13.611-30.4 30.4zM377.6 200v-30.4h-30.4v-45.6c0-25.185-20.416-45.6-45.6-45.6s-45.6 20.416-45.6 45.6v45.6h-121.6v30.4h243.2z" />
<glyph unicode="&#xe0db;" d="M256 473.6c-134.315 0-243.2-108.885-243.2-243.2s108.885-243.2 243.2-243.2 243.2 108.885 243.2 243.2-108.885 243.2-243.2 243.2zM164.8 352c16.79 0 30.4-13.611 30.4-30.4s-13.611-30.4-30.4-30.4-30.4 13.611-30.4 30.4 13.611 30.4 30.4 30.4zM377.6 169.6h-30.4v-45.6c0-25.185-20.416-45.6-45.6-45.6s-45.6 20.416-45.6 45.6v45.6h-121.6v30.4h243.2v-30.4zM347.2 291.2c-16.789 0-30.4 13.611-30.4 30.4s13.611 30.4 30.4 30.4 30.4-13.611 30.4-30.4-13.611-30.4-30.4-30.4z" />
<glyph unicode="&#xe0dc;" d="M256-12.8c134.315 0 243.2 108.885 243.2 243.2s-108.885 243.2-243.2 243.2-243.2-108.884-243.2-243.2 108.885-243.2 243.2-243.2zM256 428c109.132 0 197.6-88.469 197.6-197.6s-88.469-197.6-197.6-197.6-197.6 88.469-197.6 197.6 88.469 197.6 197.6 197.6zM134.4 321.6c0 16.789 13.611 30.4 30.4 30.4s30.4-13.611 30.4-30.4c0-16.79-13.611-30.4-30.4-30.4s-30.4 13.611-30.4 30.4zM316.8 321.6c0 16.789 13.611 30.4 30.4 30.4s30.4-13.611 30.4-30.4c0-16.79-13.611-30.4-30.4-30.4s-30.4 13.611-30.4 30.4zM164.754 102.748l-39.106 23.463c26.582 44.208 75.010 73.788 130.352 73.788s103.769-29.58 130.352-73.788l-39.106-23.463c-18.608 30.945-52.507 51.651-91.246 51.651-38.74 0-72.639-20.706-91.246-51.651z" />
<glyph unicode="&#xe0dd;" d="M256 473.6c-134.315 0-243.2-108.885-243.2-243.2s108.885-243.2 243.2-243.2 243.2 108.885 243.2 243.2-108.885 243.2-243.2 243.2zM347.2 352c16.789 0 30.4-13.611 30.4-30.4s-13.611-30.4-30.4-30.4-30.4 13.611-30.4 30.4 13.611 30.4 30.4 30.4zM164.8 352c16.79 0 30.4-13.611 30.4-30.4s-13.611-30.4-30.4-30.4-30.4 13.611-30.4 30.4 13.611 30.4 30.4 30.4zM347.247 102.748c-18.608 30.945-52.508 51.651-91.247 51.651s-72.639-20.706-91.246-51.651l-39.106 23.463c26.581 44.208 75.010 73.788 130.352 73.788s103.77-29.58 130.352-73.788l-39.106-23.463z" />
<glyph unicode="&#xe0de;" d="M256-12.8c134.315 0 243.2 108.885 243.2 243.2s-108.885 243.2-243.2 243.2-243.2-108.884-243.2-243.2 108.885-243.2 243.2-243.2zM256 428c109.132 0 197.6-88.469 197.6-197.6s-88.469-197.6-197.6-197.6-197.6 88.469-197.6 197.6 88.469 197.6 197.6 197.6zM270.601 135.861c66.618 13.161 118.327 43.483 137.015 83.882-10.286-79.779-76.721-141.344-157.154-141.344-56.64 0-106.332 30.534-134.374 76.451 33.445-26.152 92.403-31.259 154.512-18.988zM316.8 306.4c0 25.184 13.611 45.6 30.4 45.6s30.4-20.416 30.4-45.6c0-25.184-13.611-45.6-30.4-45.6s-30.4 20.416-30.4 45.6zM180 297.138c-19.853 0-36.733-7.437-42.995-17.813-1.681 2.786-2.605 15.282-2.605 18.406 0 14.757 20.416 26.719 45.6 26.719s45.6-11.963 45.6-26.719c0-3.123-0.923-15.62-2.605-18.406-6.262 10.376-23.142 17.813-42.995 17.813z" />
<glyph unicode="&#xe0df;" d="M256 473.6c-134.315 0-243.2-108.884-243.2-243.2s108.883-243.2 243.2-243.2c134.315 0 243.2 108.885 243.2 243.2s-108.885 243.2-243.2 243.2zM347.2 352c16.789 0 30.4-20.416 30.4-45.6s-13.611-45.6-30.4-45.6-30.4 20.416-30.4 45.6 13.611 45.6 30.4 45.6zM180 325.37c28.332 0 48.45-10.607 48.45-27.209 0-3.514 1.81-20.422-0.081-23.557-7.043 11.673-26.035 20.039-48.369 20.039s-41.326-8.365-48.369-20.039c-1.892 3.135-0.081 20.043-0.081 23.557 0 16.601 20.118 27.209 48.45 27.209zM250.464 78.4c-56.64 0-106.332 30.533-134.374 76.452 33.445-26.154 92.403-31.26 154.512-18.99 66.618 13.161 118.327 43.483 137.015 83.882-10.286-79.781-76.721-141.345-157.154-141.345z" />
<glyph unicode="&#xe0e0;" d="M256-12.8c134.315 0 243.2 108.885 243.2 243.2s-108.885 243.2-243.2 243.2-243.2-108.884-243.2-243.2 108.885-243.2 243.2-243.2zM256 428c109.132 0 197.6-88.469 197.6-197.6s-88.469-197.6-197.6-197.6-197.6 88.469-197.6 197.6 88.469 197.6 197.6 197.6zM104 230.4v-30.4c0-66.88 54.72-121.6 121.6-121.6h60.8c66.88 0 121.6 54.72 121.6 121.6v30.4h-304zM195.2 114.030c-12.606 4.493-24.189 11.791-33.983 21.587-17.293 17.291-26.816 40.156-26.816 64.382h60.8v-85.969zM286.4 108.8h-60.8v91.2h60.8v-91.2zM350.784 135.617c-9.796-9.796-21.38-17.094-33.983-21.587v85.969h60.8c0-24.226-9.523-47.091-26.817-64.382zM119.842 291.2c0.001 0 0 0 0 0 4.64 0 8.602 3.351 9.369 7.928 2.925 17.425 17.892 30.072 35.589 30.072s32.664-12.648 35.589-30.072c0.768-4.575 4.729-7.928 9.368-7.928 4.64 0 8.601 3.351 9.369 7.927 0.514 3.057 0.774 6.143 0.774 9.173 0 30.382-24.718 55.1-55.1 55.1s-55.1-24.718-55.1-55.1c0-3.030 0.26-6.116 0.773-9.173 0.769-4.575 4.731-7.927 9.37-7.927zM302.242 291.2c0.001 0 0 0 0 0 4.641 0 8.603 3.351 9.369 7.928 2.925 17.425 17.892 30.072 35.589 30.072s32.664-12.648 35.589-30.072c0.767-4.575 4.73-7.928 9.368-7.928s8.601 3.351 9.368 7.927c0.514 3.057 0.774 6.143 0.774 9.173 0 30.382-24.718 55.1-55.1 55.1s-55.1-24.718-55.1-55.1c0-3.030 0.259-6.116 0.772-9.173 0.772-4.575 4.733-7.927 9.372-7.927z" />
<glyph unicode="&#xe0e1;" d="M256 473.6c-134.315 0-243.2-108.885-243.2-243.2s108.882-243.2 243.2-243.2c134.315 0 243.2 108.885 243.2 243.2s-108.885 243.2-243.2 243.2zM347.2 361.5c30.382 0 55.1-24.718 55.1-55.1 0-3.029-0.26-6.116-0.774-9.173-0.769-4.575-4.73-7.927-9.369-7.927s-8.601 3.351-9.368 7.928c-2.926 17.425-17.893 25.322-35.59 25.322s-32.664-7.897-35.589-25.322c-0.767-4.575-4.729-7.928-9.368-7.928-0.001 0 0 0-0.001 0-4.639 0-8.601 3.351-9.368 7.927-0.515 3.057-0.774 6.144-0.774 9.173 0 30.382 24.718 55.1 55.1 55.1zM164.8 361.5c30.382 0 55.1-24.718 55.1-55.1 0-3.029-0.261-6.116-0.774-9.173-0.768-4.575-4.729-7.927-9.369-7.927s-8.601 3.351-9.368 7.928c-2.926 17.425-17.893 25.322-35.59 25.322s-32.664-7.897-35.589-25.322c-0.768-4.575-4.729-7.928-9.368-7.928 0 0 0 0 0 0-4.639 0-8.6 3.351-9.369 7.927-0.514 3.057-0.774 6.144-0.774 9.173 0 30.382 24.718 55.1 55.1 55.1zM104 200h91.2v-117.727c-52.294 13.588-91.2 61.334-91.2 117.727zM225.6 78.4v121.6h60.8v-121.6h-60.8zM316.8 82.273v117.727h91.2c0-56.393-38.904-104.139-91.2-117.727z" />
<glyph unicode="&#xe0e2;" d="M256-12.8c134.315 0 243.2 108.885 243.2 243.2s-108.885 243.2-243.2 243.2-243.2-108.884-243.2-243.2 108.885-243.2 243.2-243.2zM256 428c109.132 0 197.6-88.469 197.6-197.6s-88.469-197.6-197.6-197.6-197.6 88.469-197.6 197.6 88.469 197.6 197.6 197.6zM392.8 352c8.36 0 15.2-6.84 15.2-15.2v-45.6c0-16.72-13.68-30.4-30.4-30.4h-60.8c-16.72 0-30.4 13.68-30.4 30.4h-60.8c0-16.72-13.68-30.4-30.4-30.4h-60.8c-16.72 0-30.4 13.68-30.4 30.4v45.6c0 8.36 6.84 15.2 15.2 15.2h91.2c8.36 0 15.2-6.84 15.2-15.2v-15.2h60.8v15.2c0 8.36 6.84 15.2 15.2 15.2h91.2zM256 108.8c44.274 0 83.017 23.663 104.284 59.032l26.068-15.644c-26.584-44.208-75.010-73.788-130.352-73.788-23.018 0-44.833 5.128-64.381 14.289l15.752 26.257c14.893-6.514 31.333-10.146 48.63-10.146z" />
<glyph unicode="&#xe0e3;" d="M256 473.6c-134.315 0-243.2-108.885-243.2-243.2s108.882-243.2 243.2-243.2c134.315 0 243.2 108.885 243.2 243.2s-108.885 243.2-243.2 243.2zM256 78.4c-23.017 0-44.833 5.128-64.382 14.289l15.752 26.256c14.894-6.513 31.334-10.145 48.63-10.145 44.274 0 83.017 23.663 104.283 59.032l26.069-15.644c-26.583-44.208-75.009-73.788-130.351-73.788zM408 291.2c0-16.72-13.68-30.4-30.4-30.4h-60.8c-16.72 0-30.4 13.68-30.4 30.4h-60.8c0-16.72-13.68-30.4-30.4-30.4h-60.8c-16.72 0-30.4 13.68-30.4 30.4v45.6c0 8.36 6.84 15.2 15.2 15.2h91.2c8.36 0 15.2-6.84 15.2-15.2v-15.2h60.8v15.2c0 8.36 6.84 15.2 15.2 15.2h91.2c8.36 0 15.2-6.84 15.2-15.2v-45.6z" />
<glyph unicode="&#xe0e4;" d="M256-12.8c134.315 0 243.2 108.885 243.2 243.2s-108.885 243.2-243.2 243.2-243.2-108.884-243.2-243.2 108.885-243.2 243.2-243.2zM256 428c109.132 0 197.6-88.469 197.6-197.6s-88.469-197.6-197.6-197.6-197.6 88.469-197.6 197.6 88.469 197.6 197.6 197.6zM347.247 102.748c-18.608 30.945-52.508 51.651-91.247 51.651s-72.639-20.706-91.246-51.651l-39.106 23.463c26.581 44.208 75.010 73.788 130.352 73.788s103.77-29.58 130.352-73.788l-39.106-23.463zM377.145 340.486c2.035-8.143-2.916-16.396-11.059-18.432-8.373-2.114-18.298-5.757-27.045-10.141 5.058-5.429 8.158-12.707 8.158-20.713 0-16.789-13.611-30.4-30.4-30.4s-30.4 13.611-30.4 30.4c0 0.555 0.017 1.106 0.046 1.655 0.965 22.541 21.476 37.5 38.756 46.141 16.502 8.251 32.824 12.378 33.51 12.55 8.144 2.037 16.396-2.916 18.433-11.060zM134.855 340.486c2.037 8.144 10.288 13.096 18.433 11.060 0.687-0.172 17.008-4.3 33.511-12.551 17.28-8.641 37.791-23.6 38.756-46.14 0.030-0.548 0.047-1.099 0.047-1.655 0-16.79-13.611-30.4-30.4-30.4s-30.4 13.611-30.4 30.4c0 8.005 3.1 15.284 8.157 20.713-8.746 4.385-18.672 8.028-27.044 10.142-8.143 2.036-13.094 10.288-11.059 18.432z" />
<glyph unicode="&#xe0e5;" d="M256 473.6c-134.315 0-243.2-108.885-243.2-243.2s108.885-243.2 243.2-243.2 243.2 108.885 243.2 243.2-108.885 243.2-243.2 243.2zM286.445 292.855c0.965 22.541 21.475 37.5 38.756 46.14 16.502 8.252 32.825 12.379 33.51 12.551 8.144 2.037 16.397-2.916 18.433-11.060s-2.916-16.396-11.060-18.433c-8.372-2.113-18.298-5.757-27.045-10.141 5.058-5.429 8.158-12.707 8.158-20.713 0-16.79-13.611-30.4-30.4-30.4s-30.4 13.611-30.4 30.4c0.001 0.556 0.018 1.108 0.048 1.656zM134.855 340.486c2.037 8.144 10.288 13.096 18.433 11.060 0.687-0.172 17.008-4.3 33.511-12.551 17.28-8.641 37.791-23.6 38.756-46.14 0.030-0.548 0.047-1.099 0.047-1.655 0-16.79-13.611-30.4-30.4-30.4s-30.4 13.611-30.4 30.4c0 8.005 3.1 15.284 8.157 20.713-8.746 4.385-18.672 8.028-27.044 10.142-8.143 2.036-13.094 10.288-11.059 18.432zM347.247 102.748c-18.608 30.945-52.508 51.651-91.247 51.651s-72.639-20.706-91.246-51.651l-39.106 23.463c26.581 44.208 75.010 73.788 130.352 73.788s103.77-29.58 130.352-73.788l-39.106-23.463z" />
<glyph unicode="&#xe0e6;" d="M313.758 247.12c-15.95 0-28.88 12.93-28.879 28.881 0 0.528 0.016 1.051 0.044 1.572 0.916 21.413 20.401 35.625 36.818 43.834 15.678 7.838 31.183 11.76 31.835 11.923 7.738 1.935 15.576-2.769 17.512-10.507 1.933-7.737-2.771-15.576-10.507-17.511-7.954-2.008-17.383-5.469-25.692-9.635 4.805-5.158 7.75-12.072 7.75-19.678 0-15.95-12.93-28.88-28.88-28.88zM151.419 305.312c-7.737 1.934-12.44 9.774-10.506 17.51 1.934 7.738 9.774 12.442 17.512 10.507 0.651-0.163 16.157-4.084 31.835-11.923 16.417-8.208 35.901-22.42 36.818-43.834 0.028-0.52 0.044-1.045 0.044-1.572 0-15.95-12.93-28.88-28.88-28.88s-28.88 12.93-28.88 28.88c0 7.605 2.945 14.519 7.75 19.678-8.309 4.166-17.739 7.626-25.692 9.635zM256 117.16c36.801 0 69.007 19.671 86.684 49.069l37.151-22.29c-25.253-41.998-71.26-70.099-123.835-70.099s-98.582 28.101-123.835 70.099l37.15 22.29c17.677-29.398 49.882-49.069 86.684-49.069zM487.040 420.4c0 20.539-4.298 40.071-12.026 57.76-15.151-34.672-43.522-62.241-78.74-76.341-38.895 29.764-87.514 47.462-140.273 47.462s-101.378-17.697-140.273-47.462c-35.219 14.1-63.589 41.67-78.74 76.341-7.729-17.689-12.026-37.221-12.026-57.76 0-33.2 11.213-63.774 30.048-88.164-19.119-33.637-30.048-72.538-30.048-113.996 0-127.599 103.44-231.040 231.040-231.040s231.040 103.44 231.040 231.040c0 41.457-10.928 80.359-30.048 113.995 18.834 24.391 30.048 54.964 30.048 88.165zM256 30.52c-103.674 0-187.72 84.046-187.72 187.72s84.046 187.72 187.72 187.72 187.72-84.046 187.72-187.72-84.046-187.72-187.72-187.72z" />
<glyph unicode="&#xe0e7;" d="M487.040 420.4c0 20.539-4.298 40.071-12.026 57.76-15.151-34.672-43.522-62.241-78.74-76.341-38.895 29.764-87.514 47.462-140.273 47.462s-101.378-17.697-140.273-47.462c-35.219 14.1-63.589 41.67-78.74 76.341-7.729-17.689-12.026-37.221-12.026-57.76 0-33.2 11.213-63.774 30.048-88.164-19.119-33.637-30.048-72.538-30.048-113.996 0-127.599 103.44-231.040 231.040-231.040s231.040 103.44 231.040 231.040c0 41.457-10.928 80.359-30.048 113.995 18.834 24.391 30.048 54.964 30.048 88.165zM284.923 277.572c0.916 21.413 20.401 35.625 36.818 43.833 15.678 7.839 31.183 11.76 31.835 11.923 7.738 1.935 15.577-2.769 17.512-10.507s-2.769-15.576-10.507-17.512c-7.953-2.008-17.383-5.469-25.692-9.635 4.805-5.157 7.75-12.072 7.75-19.678 0-15.95-12.93-28.88-28.88-28.88s-28.88 12.93-28.88 28.88c0.001 0.528 0.017 1.052 0.045 1.573zM140.912 322.822c1.935 7.738 9.774 12.442 17.512 10.507 0.653-0.163 16.157-4.084 31.835-11.923 16.416-8.209 35.901-22.42 36.818-43.834 0.028-0.52 0.044-1.044 0.044-1.572 0-15.95-12.93-28.88-28.88-28.88s-28.88 12.93-28.88 28.88c0 7.605 2.945 14.519 7.75 19.678-8.309 4.166-17.738 7.626-25.692 9.635-7.736 1.934-12.44 9.774-10.506 17.511zM256 73.84c-52.575 0-98.582 28.101-123.835 70.099l37.15 22.29c17.677-29.398 49.882-49.069 86.684-49.069 36.801 0 69.007 19.671 86.684 49.069l37.151-22.29c-25.253-41.998-71.26-70.099-123.835-70.099z" />
<glyph unicode="&#xe0e8;" d="M256-12.8c134.315 0 243.2 108.885 243.2 243.2s-108.885 243.2-243.2 243.2-243.2-108.884-243.2-243.2 108.885-243.2 243.2-243.2zM256 428c109.132 0 197.6-88.469 197.6-197.6s-88.469-197.6-197.6-197.6-197.6 88.469-197.6 197.6 88.469 197.6 197.6 197.6zM195.2 139.2c0 33.579 27.221 60.8 60.8 60.8s60.8-27.221 60.8-60.8c0-33.579-27.221-60.8-60.8-60.8s-60.8 27.221-60.8 60.8zM316.8 306.4c0 25.184 13.611 45.6 30.4 45.6s30.4-20.416 30.4-45.6c0-25.184-13.611-45.6-30.4-45.6s-30.4 20.416-30.4 45.6zM134.4 306.4c0 25.184 13.611 45.6 30.4 45.6s30.4-20.416 30.4-45.6c0-25.184-13.611-45.6-30.4-45.6s-30.4 20.416-30.4 45.6z" />
<glyph unicode="&#xe0e9;" d="M256 473.6c-134.315 0-243.2-108.885-243.2-243.2s108.885-243.2 243.2-243.2 243.2 108.885 243.2 243.2-108.885 243.2-243.2 243.2zM164.8 260.8c-16.79 0-30.4 20.416-30.4 45.6s13.611 45.6 30.4 45.6 30.4-20.416 30.4-45.6-13.611-45.6-30.4-45.6zM256 78.4c-33.578 0-60.8 27.221-60.8 60.8s27.221 60.8 60.8 60.8c33.579 0 60.8-27.221 60.8-60.8s-27.221-60.8-60.8-60.8zM347.2 260.8c-16.789 0-30.4 20.416-30.4 45.6s13.611 45.6 30.4 45.6 30.4-20.416 30.4-45.6-13.611-45.6-30.4-45.6z" />
<glyph unicode="&#xe0ea;" d="M256-12.8c134.315 0 243.2 108.885 243.2 243.2s-108.885 243.2-243.2 243.2-243.2-108.884-243.2-243.2 108.885-243.2 243.2-243.2zM256 428c109.132 0 197.6-88.469 197.6-197.6s-88.469-197.6-197.6-197.6-197.6 88.469-197.6 197.6 88.469 197.6 197.6 197.6zM134.4 321.6c0 16.789 13.611 30.4 30.4 30.4s30.4-13.611 30.4-30.4c0-16.79-13.611-30.4-30.4-30.4s-30.4 13.611-30.4 30.4zM316.8 321.6c0 16.789 13.611 30.4 30.4 30.4s30.4-13.611 30.4-30.4c0-16.79-13.611-30.4-30.4-30.4s-30.4 13.611-30.4 30.4zM357.7 169.6h30.81c4.392-34.44-15.414-68.651-49.38-81.016-39.38-14.334-83.077 6.040-97.413 45.418-8.601 23.628-34.821 35.854-58.448 27.252-21.642-7.88-33.704-30.541-28.97-52.452h-30.808c-4.39 34.442 15.414 68.651 49.379 81.016 39.38 14.334 83.078-6.040 97.414-45.416 8.599-23.63 34.82-35.854 58.446-27.252 21.642 7.877 33.704 30.541 28.969 52.45z" />
<glyph unicode="&#xe0eb;" d="M256 473.6c-134.315 0-243.2-108.885-243.2-243.2s108.882-243.2 243.2-243.2c134.315 0 243.2 108.885 243.2 243.2s-108.885 243.2-243.2 243.2zM347.2 352c16.789 0 30.4-13.611 30.4-30.4s-13.611-30.4-30.4-30.4-30.4 13.611-30.4 30.4c0 16.789 13.611 30.4 30.4 30.4zM164.8 352c16.79 0 30.4-13.611 30.4-30.4s-13.611-30.4-30.4-30.4-30.4 13.611-30.4 30.4c0 16.789 13.611 30.4 30.4 30.4zM339.13 88.584c-39.379-14.336-83.077 6.038-97.413 45.416-8.601 23.627-34.821 35.852-58.448 27.252-21.642-7.88-33.705-30.541-28.97-52.452h-30.808c-4.391 34.442 15.414 68.652 49.379 81.016 39.38 14.336 83.078-6.038 97.414-45.416 8.601-23.627 34.82-35.851 58.447-27.25 21.642 7.877 33.705 30.539 28.969 52.45h30.81c4.389-34.44-15.416-68.653-49.381-81.016z" />
</font>
</defs>
</svg>
